<svg xmlns="http://www.w3.org/2000/svg" width="23.941" height="19.991" data-name="Layer 1" viewBox="0 0 23.941 19.991"><g fill="#747474" data-name="Group 267"><path d="M3.773 11.496q4.087-3.146 8.2-6.306c2.748 2.116 5.478 4.214 8.212 6.321v8.48h-6.323v-6.163h-3.491v6.158H3.773Z" data-name="Path 80"/><path d="M23.941 9.213c-.56.733-1.092 1.422-1.652 2.145L11.971 3.424C8.542 6.062 5.114 8.7 1.652 11.358A350 350 0 0 1 0 9.208C3.993 6.139 7.968 3.079 11.971 0c1.681 1.288 3.352 2.576 5.114 3.926V2.279h3.472c.01 1.427 0 2.854 0 4.324 1.106.852 2.227 1.719 3.381 2.6Z" data-name="Path 81"/></g></svg>