<svg xmlns="http://www.w3.org/2000/svg" width="21.334" height="24" viewBox="0 0 21.334 24"><g fill="#747474"><path d="m10.667 14.533-2.84 2.787a3.88 3.88 0 0 0-1.16 2.763 4 4 0 0 0 8 0 3.85 3.85 0 0 0-1.16-2.76Z" data-name="Path 2412"/><path d="m16 5.333-.587.733A2.667 2.667 0 0 1 10.667 4.4V0S0 5.333 0 14.667a10.63 10.63 0 0 0 5.187 9.147A6.45 6.45 0 0 1 4 20.08a6.52 6.52 0 0 1 1.96-4.667l4.707-4.613 4.707 4.627a6.52 6.52 0 0 1 .826 8.333 10.63 10.63 0 0 0 4.947-7.067A10.85 10.85 0 0 0 16 5.333" data-name="Path 2413"/></g></svg>