<svg xmlns="http://www.w3.org/2000/svg" width="23.819" height="23.823" viewBox="0 0 23.819 23.823"><g fill="#747474" data-name="Group 268"><path d="M8.376 22.427H4.2v1.353c-.481.076-.939.01-1.42.043v-1.4H0v-1.387h1.358v-4.121l.062-.062a.06.06 0 0 1 .038-.014h4.079a12 12 0 0 1 .029 1.377c.01.467 0 .929 0 1.4v1.4h1.4v-6.96h4.193V21h1.358a.1.1 0 0 0 .024-.024.1.1 0 0 0 .014-.043V8.514l.043-.043a.06.06 0 0 1 .038-.019h4.05a.1.1 0 0 1 .033.033.1.1 0 0 1 .024.038v.048q0 6.189.01 12.379c0 .014.014.024.033.052h1.344V0h4.16a.1.1 0 0 1 .024.024.1.1 0 0 1 .014.043v20.926H23.8c.043.481.014.939.024 1.42h-2.888v1.377h-1.387v-1.358c-.719-.033-1.415-.014-2.106-.019h-2.077v1.367a14 14 0 0 1-1.42.033v-1.381H9.768v1.358H8.381v-1.368Z" data-name="Path 82"/><path d="M1.401 4.693c1.41.705 2.778 1.391 4.145 2.073v4.889L1.401 9.582z" data-name="Path 83"/><path d="M11.135 4.741v4.831c-1.344.7-2.73 1.377-4.15 2.082V6.818c.267-.2 3.7-1.925 4.15-2.082Z" data-name="Path 84"/><path d="M2.078 3.487c1.445-.716 2.82-1.41 4.188-2.096 1.382.691 2.754 1.377 4.188 2.1l-4.188 2.1c-1.377-.691-2.749-1.377-4.193-2.1Z" data-name="Path 85"/></g></svg>