<svg xmlns="http://www.w3.org/2000/svg" width="23.937" height="23.933" viewBox="0 0 23.937 23.933"><g fill="#747474" data-name="Group 269"><path d="M11.966 15.501c-1.072 0-2.149-.01-3.221 0-.258 0-.388-.062-.469-.325a2.7 2.7 0 0 0-1.015-1.307 7.58 7.58 0 0 1-2.925-4.83 7.54 7.54 0 0 1 1.723-6.266A7.3 7.3 0 0 1 10.448.159a7.54 7.54 0 0 1 6.28 1.484 7.54 7.54 0 0 1 2.709 4.083 7.51 7.51 0 0 1-1.235 6.585 7.5 7.5 0 0 1-1.565 1.59 2.65 2.65 0 0 0-1 1.316.343.343 0 0 1-.4.278h-3.269Zm-1.862-8.416h-2.15c-.369 0-.6.148-.661.469a7 7 0 0 0 0 2.269.56.56 0 0 0 .555.479.643.643 0 0 0 .775-.656c.014-.311 0-.622 0-.933 0-.235.034-.263.278-.268.3-.01.594 0 .885 0 .191 0 .239.086.235.258v.747a1.1 1.1 0 0 0 .12.541.68.68 0 0 0 .766.311.61.61 0 0 0 .505-.59c.019-.325 0-.651.01-.981 0-.244.034-.273.263-.282.153-.01.311 0 .464 0 .325.01.325.01.373.33a2.094 2.094 0 0 0 4.116.153 8 8 0 0 0 .074-1.441 3.5 3.5 0 0 0-.081-.924 2.094 2.094 0 0 0-4.107.2c-.048.321-.048.325-.373.325h-2.052Z" data-name="Path 86"/><path d="M11.97 16.897h3.126c.392 0 .4 0 .4.373v2.149a1.29 1.29 0 0 1-.407 1c-.866.828-.6.713-1.742.718-1.091 0-2.178-.01-3.269 0a1.03 1.03 0 0 1-.862-.369 2.6 2.6 0 0 0-.364-.364 1.12 1.12 0 0 1-.412-.943v-2.24c0-.321.01-.325.349-.325h3.173Z" data-name="Path 87"/><path d="M13.924 22.559a2.078 2.078 0 0 1-3.911 0h3.906Z" data-name="Path 88"/><path d="M22.52 12.33c-.067-.019-.172-.043-.273-.077q-.589-.21-1.177-.426a.9.9 0 0 1-.388-.244.65.65 0 0 1-.086-.814.67.67 0 0 1 .751-.321c.5.158 1 .33 1.489.527a.7.7 0 0 1 .416.756.77.77 0 0 1-.728.6Z" data-name="Path 89"/><path d="M1.421 3.198a1.3 1.3 0 0 1 .187.053c.45.163.9.316 1.35.493a.682.682 0 0 1 .359 1.058.65.65 0 0 1-.728.278c-.5-.158-1-.33-1.489-.527a.7.7 0 0 1-.412-.761.775.775 0 0 1 .733-.594" data-name="Path 90"/><path d="M20.486 4.346a.76.76 0 0 1 .512-.613c.436-.158.871-.325 1.311-.474a.7.7 0 0 1 .512 1.3c-.369.153-.756.278-1.134.412a2.4 2.4 0 0 1-.354.115.725.725 0 0 1-.847-.74" data-name="Path 91"/><path d="M3.45 11.167a.73.73 0 0 1-.464.608c-.46.182-.924.349-1.4.5a.675.675 0 0 1-.857-.431.69.69 0 0 1 .383-.886c.282-.124.579-.211.876-.316.206-.072.407-.158.613-.211a.72.72 0 0 1 .847.728Z" data-name="Path 92"/><path d="M1.416 7.084c.263 0 .531-.014.795 0a.6.6 0 0 1 .617.574.655.655 0 0 1-.464.761 1.2 1.2 0 0 1-.321.062c-.4 0-.809.014-1.216 0a.8.8 0 0 1-.719-.353.664.664 0 0 1 .464-1.029 7 7 0 0 1 .838 0v-.01Z" data-name="Path 93"/><path d="M22.513 7.089c.249 0 .5-.01.747 0a.66.66 0 0 1 .67.589.69.69 0 0 1-.541.756.5.5 0 0 1-.134.034c-.5 0-1 .038-1.489 0a.665.665 0 0 1-.651-.795.62.62 0 0 1 .565-.579h.838Z" data-name="Path 94"/><path d="M13.913 7.73c0-.235-.01-.464 0-.7a.7.7 0 0 1 .589-.67.69.69 0 0 1 .751.483 1 1 0 0 1 .062.364v1.115a1.05 1.05 0 0 1-.1.45.69.69 0 0 1-.771.378.71.71 0 0 1-.527-.632c-.014-.263 0-.527 0-.79Z" data-name="Path 95"/></g></svg>