<svg xmlns="http://www.w3.org/2000/svg" width="48" height="44" viewBox="0 0 48 44"><path fill="#242426" fill-rule="evenodd" d="M20.25 0h7.5v6.25H34v7.5h-6.25V20h-7.5v-6.25H14v-7.5h6.25ZM8 42 4.2 28.1l3.7-11.9a2.3 2.3 0 0 1 .775.725A1.86 1.86 0 0 1 9 18v10.1a18 18 0 0 0 .1 2.15 8 8 0 0 0 .4 1.65l1.55 4.65 3.9-1.1-1.35-4.05a13 13 0 0 1-.4-2q-.15-1.15-.2-3.4a1.9 1.9 0 0 1 1.05.325 1.5 1.5 0 0 1 .65.775L19 38.8V44h4v-5.2a3.3 3.3 0 0 0-.075-.7 6 6 0 0 0-.175-.65L18.4 25.7a5.42 5.42 0 0 0-2.1-2.675A5.7 5.7 0 0 0 13 22v-4a5.97 5.97 0 0 0-1.65-4.25A5.7 5.7 0 0 0 7 12H5L0 28l4 14v2h3.9Zm32 0 3.8-13.9-3.7-11.9a2.3 2.3 0 0 0-.775.725A1.86 1.86 0 0 0 39 18v10.1a18 18 0 0 1-.1 2.15 8 8 0 0 1-.4 1.65l-1.55 4.65-3.9-1.1 1.35-4.05a13 13 0 0 0 .4-2q.15-1.15.2-3.4a1.9 1.9 0 0 0-1.05.325 1.5 1.5 0 0 0-.65.775L29 38.8V44h-4v-5.2a3.3 3.3 0 0 1 .075-.7 6 6 0 0 1 .175-.65L29.6 25.7a5.42 5.42 0 0 1 2.1-2.675A5.7 5.7 0 0 1 35 22v-4a5.97 5.97 0 0 1 1.65-4.25A5.7 5.7 0 0 1 41 12h2l5 16-4 14v2h-3.9Z"/></svg>