<svg xmlns="http://www.w3.org/2000/svg" width="48" height="48.072" viewBox="0 0 48 48.072"><path fill="#242426" fill-rule="evenodd" d="M38.421 3.605V0h-4.807v3.605a2.4 2.4 0 0 1-2.4 2.4h-2.4a7.21 7.21 0 0 0-7.211 7.211v1.2h-9.501a9.22 9.22 0 0 0-6.279 2.344 9.54 9.54 0 0 0-3.215 5.949L.085 40.741a6.6 6.6 0 0 0 1.262 5.2 5.7 5.7 0 0 0 4.747 2.133 6 6 0 0 0 2.344-.451 6.1 6.1 0 0 0 1.983-1.352l5.408-5.408h16.343l5.413 5.406a6.1 6.1 0 0 0 1.983 1.352 6 6 0 0 0 2.344.451 5.7 5.7 0 0 0 4.747-2.133 6.6 6.6 0 0 0 1.262-5.2l-2.529-18.025a9.54 9.54 0 0 0-3.215-5.949 9.22 9.22 0 0 0-6.279-2.344h-9.495v-1.2a2.4 2.4 0 0 1 2.4-2.4h2.4a7.21 7.21 0 0 0 7.218-7.216M13.905 36.054 7.055 42.9a5.3 5.3 0 0 1-.961.361 1.42 1.42 0 0 1-1.052-.391 1.12 1.12 0 0 1-.27-1.052l2.643-18.503A4.62 4.62 0 0 1 8.978 20.4a4.56 4.56 0 0 1 3.125-1.172h23.8a4.56 4.56 0 0 1 3.12 1.172 4.62 4.62 0 0 1 1.562 2.915l2.644 18.508a1.12 1.12 0 0 1-.27 1.052 1.42 1.42 0 0 1-1.052.391 3.3 3.3 0 0 1-.961-.361l-6.85-6.85Zm23.826-3.095a2.468 2.468 0 1 1 .691-1.713 2.33 2.33 0 0 1-.691 1.713m-4.807-7.211a2.468 2.468 0 1 1 .691-1.713 2.33 2.33 0 0 1-.692 1.714Zm-15.533 7.9h-3.606v-4.204H9.579v-3.605h4.206v-4.207h3.605v4.206h4.206v3.605H17.39Z"/></svg>