<svg xmlns="http://www.w3.org/2000/svg" width="48" height="28.932" viewBox="0 0 48 28.932"><path fill="#242426" d="m20.415.045-3.833 3.833a7.84 7.84 0 0 0-3.112 1.688l-2 1.777A4.2 4.2 0 0 1 8.685 8.4H7.2V18a6 6 0 0 1 4.072 1.755l2.67 2.67.525.525 2.025 2.025a1.2 1.2 0 0 0 1.695 0 1.1 1.1 0 0 0 .278-.435 1.8 1.8 0 0 1 1.3-1.147 1.78 1.78 0 0 1 1.665.487l.81.8a2.22 2.22 0 0 0 3.143 0 2.18 2.18 0 0 0 .645-1.455 1.78 1.78 0 0 1 1.02-1.53 1.8 1.8 0 0 1 1.83.158 1.8 1.8 0 0 0 2.318-2.738l-5.685-5.685-2.689 2.47a5.418 5.418 0 0 1-7.395-7.92l5.258-4.965a11.07 11.07 0 0 1 14.94-.225l2.257 2.01H46.8A1.2 1.2 0 0 1 48 6v15.6a2.4 2.4 0 0 1-2.4 2.4h-2.4a2.39 2.39 0 0 1-2.077-1.2h-6.368a5.5 5.5 0 0 1-1.012 1.4 5.42 5.42 0 0 1-4.725 1.507 5.7 5.7 0 0 1-1.095 1.515 5.84 5.84 0 0 1-7.53.607 4.8 4.8 0 0 1-6.45-.307L11.925 25.5l-.525-.525-2.67-2.67a2.42 2.42 0 0 0-1.53-.7A2.4 2.4 0 0 1 4.8 24H2.4A2.4 2.4 0 0 1 0 21.6V6a1.2 1.2 0 0 1 1.2-1.2h7.485a.58.58 0 0 0 .4-.15l1.985-1.77A11.44 11.44 0 0 1 18.653 0h.772c.33 0 .668.015.99.045M40.8 19.2V8.4h-3.6a1.78 1.78 0 0 1-1.193-.458l-2.767-2.46a7.47 7.47 0 0 0-10.08.15L17.9 10.6a1.815 1.815 0 0 0 2.475 2.655l5.393-4.98a1.8 1.8 0 1 1 2.438 2.648l-.06.06 5.58 5.58a5.4 5.4 0 0 1 1.455 2.632H40.8Zm-36 1.2a1.2 1.2 0 1 0-1.2 1.2 1.2 1.2 0 0 0 1.2-1.2m39.6 1.2a1.2 1.2 0 1 0-1.2-1.2 1.2 1.2 0 0 0 1.2 1.2" data-name="Icon fa-regular-handshake"/></svg>