<svg xmlns="http://www.w3.org/2000/svg" width="48" height="40" viewBox="0 0 48 40"><path fill="#242426" fill-rule="evenodd" d="M30.55 14.75A58 58 0 0 0 36 20a58 58 0 0 0 5.45-5.25A9.42 9.42 0 0 0 44 8.2a8.03 8.03 0 0 0-2.325-5.8 7.91 7.91 0 0 0-11.35 0A8.03 8.03 0 0 0 28 8.2a9.42 9.42 0 0 0 2.55 6.55m6.975-5.375A2.15 2.15 0 0 1 33.85 7.85a2.1 2.1 0 0 1 .625-1.5 2.114 2.114 0 0 1 3.05 0 2.1 2.1 0 0 1 .625 1.5 2.07 2.07 0 0 1-.625 1.525M8 6a4 4 0 0 0-4 4v20a4 4 0 0 0 4 4v2H0v4h48v-4h-8v-2a4 4 0 0 0 4-4v-9h-4v9H8V10h16V6Z"/></svg>