<svg xmlns="http://www.w3.org/2000/svg" width="835.572" height="1587.122" viewBox="0 0 835.572 1587.122"><defs><clipPath id="a"><path fill="none" d="M0 0h605.042v1568.398H0z" data-name="Rectangle 1144"/></clipPath></defs><g data-name="back22Asset 2"><g data-name="Layer 2"><g data-name="Graphic elements"><g clip-path="url(#a)" data-name="Group 3526" transform="rotate(-167 425.54 20.452)scale(1 -1)"><g fill="none" stroke="#707070" stroke-miterlimit="10" stroke-width=".25" data-name="Group 3525"><path d="M0-578.638V591.849l204.524 211.294v286.184l138.706 149.712v329.358" data-name="Path 2357"/><path d="M19.713-590.849v1170.51l204.524 211.29v286.185l138.706 149.692v329.381" data-name="Path 2358"/><path d="M39.427-603.037V567.472l204.542 211.291v286.184l138.688 149.693v329.381" data-name="Path 2359"/><path d="M59.14-615.225v1170.51l204.542 211.271v286.184l138.688 149.712v329.381" data-name="Path 2360"/><path d="M78.871-627.413V543.073l204.524 211.294v286.184l138.688 149.712v329.358" data-name="Path 2361"/><path d="M98.585-639.625V530.884l204.524 211.291v286.184l138.688 149.689v329.381" data-name="Path 2362"/><path d="M118.298-651.813v1170.51l204.524 211.29v286.184L461.51 1165.86v329.381" data-name="Path 2363"/><path d="M138.011-599.218V506.509l204.524 211.273v286.184l138.706 149.711v329.381" data-name="Path 2364"/><path d="M157.725-615.225V494.32l204.524 211.271v286.184l138.706 149.713v329.381" data-name="Path 2365"/><path d="M177.438-574.773V482.109l204.524 211.294v286.184l138.706 149.69v329.381" data-name="Path 2366"/></g></g></g></g></g></svg>