<svg xmlns="http://www.w3.org/2000/svg" width="315.587" height="194.719" viewBox="0 0 315.587 194.719"><g data-name="Group 3641" opacity=".5"><path fill="#6b6b6b" d="M137.812 41.638a2.2 2.2 0 1 1 0 3.11 2.213 2.213 0 0 1 0-3.11" data-name="Path 1954"/><path fill="#6b6b6b" d="M125.338 41.638a2.2 2.2 0 1 1 0 3.11 2.213 2.213 0 0 1 0-3.11" data-name="Path 1955"/><path fill="#6b6b6b" d="M125.338 22.638a2.2 2.2 0 1 1 0 3.11 2.213 2.213 0 0 1 0-3.11" data-name="Path 2614"/><path fill="#6b6b6b" d="M125.338.638a2.2 2.2 0 1 1 0 3.11 2.213 2.213 0 0 1 0-3.11" data-name="Path 2616"/><path fill="#6b6b6b" d="M112.853 41.638a2.2 2.2 0 1 1 0 3.11 2.213 2.213 0 0 1 0-3.11" data-name="Path 1956"/><path fill="none" stroke="#6b6b6b" stroke-miterlimit="10" stroke-width=".75" d="M100.366 41.638a2.2 2.2 0 1 1 0 3.11 2.213 2.213 0 0 1 0-3.11Z" data-name="Path 1957"/><path fill="none" stroke="#6b6b6b" stroke-miterlimit="10" stroke-width=".75" d="M112.853 22.638a2.2 2.2 0 1 1 0 3.11 2.213 2.213 0 0 1 0-3.11Z" data-name="Path 2618"/><path fill="#ababab" d="M175.261 83.353a2.2 2.2 0 1 1 0 3.11 2.213 2.213 0 0 1 0-3.11" data-name="Path 1960"/><path fill="#6b6b6b" d="M125.338 52.074a2.2 2.2 0 1 1 0 3.11 2.213 2.213 0 0 1 0-3.11" data-name="Path 1961"/><path fill="#6b6b6b" d="M125.338 33.074a2.2 2.2 0 1 1 0 3.11 2.213 2.213 0 0 1 0-3.11" data-name="Path 2613"/><path fill="#6b6b6b" d="M125.338 11.074a2.2 2.2 0 1 1 0 3.11 2.213 2.213 0 0 1 0-3.11" data-name="Path 2615"/><path fill="#6b6b6b" d="M112.853 52.074a2.2 2.2 0 1 1 0 3.11 2.213 2.213 0 0 1 0-3.11" data-name="Path 1962"/><path fill="none" stroke="#6b6b6b" stroke-miterlimit="10" stroke-width=".75" d="M100.366 52.074a2.2 2.2 0 1 1 0 3.11 2.213 2.213 0 0 1 0-3.11Z" data-name="Path 1963"/><path fill="none" stroke="#6b6b6b" stroke-miterlimit="10" stroke-width=".75" d="M112.853 33.074a2.2 2.2 0 1 1 0 3.11 2.213 2.213 0 0 1 0-3.11Z" data-name="Path 2617"/><path fill="#6b6b6b" d="M75.405 52.074a2.2 2.2 0 1 1 0 3.11 2.213 2.213 0 0 1 0-3.11" data-name="Path 1965"/><path fill="#6b6b6b" d="M75.405 62.496a2.2 2.2 0 1 1 0 3.11 2.213 2.213 0 0 1 0-3.11" data-name="Path 1967"/><path fill="#6b6b6b" d="M62.93 62.496a2.2 2.2 0 1 1 0 3.11 2.213 2.213 0 0 1 0-3.11" data-name="Path 1968"/><path fill="none" stroke="#6b6b6b" stroke-miterlimit="10" stroke-width=".75" d="M87.891 72.919a2.2 2.2 0 1 1 0 3.11 2.213 2.213 0 0 1 0-3.11Z" data-name="Path 1969"/><path fill="#6b6b6b" d="M75.405 72.919a2.2 2.2 0 1 1 0 3.11 2.213 2.213 0 0 1 0-3.11" data-name="Path 1970"/><path fill="none" stroke="#6b6b6b" stroke-miterlimit="10" stroke-width=".75" d="M87.891 193.418a2.2 2.2 0 1 0 0-3.11 2.213 2.213 0 0 0 0 3.11Z" data-name="Path 1971"/><path fill="#6b6b6b" d="M75.405 193.418a2.2 2.2 0 1 0 0-3.11 2.213 2.213 0 0 0 0 3.11" data-name="Path 1972"/><path fill="#6b6b6b" d="M175.261 182.983a2.2 2.2 0 1 0 0-3.11 2.213 2.213 0 0 0 0 3.11" data-name="Path 1973"/><path fill="none" stroke="#6b6b6b" stroke-miterlimit="10" stroke-width=".75" d="M162.776 182.983a2.2 2.2 0 1 0 0-3.11 2.213 2.213 0 0 0 0 3.11Z" data-name="Path 1975"/><path fill="#6b6b6b" d="M150.299 182.983a2.2 2.2 0 1 0 0-3.11 2.213 2.213 0 0 0 0 3.11" data-name="Path 1976"/><path fill="none" stroke="#6b6b6b" stroke-miterlimit="10" stroke-width=".75" d="M137.812 182.983a2.2 2.2 0 1 0 0-3.11 2.213 2.213 0 0 0 0 3.11Z" data-name="Path 1978"/><path fill="#878787" d="M125.338 182.983a2.2 2.2 0 1 0 0-3.11 2.213 2.213 0 0 0 0 3.11" data-name="Path 1979"/><path fill="none" stroke="#6b6b6b" stroke-miterlimit="10" stroke-width=".75" d="M87.891 182.983a2.2 2.2 0 1 0 0-3.11 2.213 2.213 0 0 0 0 3.11Z" data-name="Path 1980"/><path fill="#bfbfbf" d="M75.405 182.983a2.2 2.2 0 1 0 0-3.11 2.213 2.213 0 0 0 0 3.11" data-name="Path 1981"/><path fill="#bfbfbf" d="M62.93 182.983a2.2 2.2 0 1 0 0-3.11 2.213 2.213 0 0 0 0 3.11" data-name="Path 1982"/><path fill="#6b6b6b" d="M162.776 171.797a2.2 2.2 0 1 0 0-3.11 2.213 2.213 0 0 0 0 3.11" data-name="Path 1983"/><path fill="none" stroke="#6b6b6b" stroke-miterlimit="10" d="M150.299 171.797a2.2 2.2 0 1 0 0-3.11 2.213 2.213 0 0 0 0 3.11Z" data-name="Path 1984"/><path fill="none" stroke="#6b6b6b" stroke-miterlimit="10" stroke-width=".75" d="M137.812 171.797a2.2 2.2 0 1 0 0-3.11 2.213 2.213 0 0 0 0 3.11Z" data-name="Path 1985"/><path fill="none" stroke="#6b6b6b" stroke-miterlimit="10" d="M112.853 171.797a2.2 2.2 0 1 0 0-3.11 2.213 2.213 0 0 0 0 3.11Z" data-name="Path 1986"/><path fill="#6b6b6b" d="M87.891 171.797a2.2 2.2 0 1 0 0-3.11 2.213 2.213 0 0 0 0 3.11" data-name="Path 1987"/><path fill="none" stroke="#6b6b6b" stroke-miterlimit="10" d="M75.405 171.797a2.2 2.2 0 1 0 0-3.11 2.213 2.213 0 0 0 0 3.11Z" data-name="Path 1988"/><path fill="#6b6b6b" d="M62.93 171.797a2.2 2.2 0 1 0 0-3.11 2.213 2.213 0 0 0 0 3.11" data-name="Path 1989"/><path fill="none" stroke="#6b6b6b" stroke-miterlimit="10" stroke-width=".75" d="M162.776 161.374a2.2 2.2 0 1 0 0-3.11 2.213 2.213 0 0 0 0 3.11Z" data-name="Path 1990"/><path fill="#6b6b6b" d="M137.812 161.374a2.2 2.2 0 1 0 0-3.11 2.213 2.213 0 0 0 0 3.11" data-name="Path 1991"/><path fill="#6b6b6b" d="M112.853 161.374a2.2 2.2 0 1 0 0-3.11 2.213 2.213 0 0 0 0 3.11" data-name="Path 1992"/><path fill="none" stroke="#6b6b6b" stroke-miterlimit="10" stroke-width=".75" d="M100.366 161.374a2.2 2.2 0 1 0 0-3.11 2.213 2.213 0 0 0 0 3.11Z" data-name="Path 1993"/><path fill="#6b6b6b" d="M87.891 161.374a2.2 2.2 0 1 0 0-3.11 2.213 2.213 0 0 0 0 3.11" data-name="Path 1994"/><path fill="#6b6b6b" d="M300.163 193.418a2.2 2.2 0 1 0 0-3.11 2.213 2.213 0 0 0 0 3.11" data-name="Path 1995"/><path fill="#6b6b6b" d="M237.755 193.418a2.2 2.2 0 1 0 0-3.11 2.213 2.213 0 0 0 0 3.11" data-name="Path 1998"/><path fill="none" stroke="#6b6b6b" stroke-miterlimit="10" stroke-width=".75" d="M225.269 193.418a2.2 2.2 0 1 0 0-3.11 2.213 2.213 0 0 0 0 3.11Z" data-name="Path 1999"/><path fill="#6b6b6b" d="M187.832 193.418a2.2 2.2 0 1 0 0-3.11 2.213 2.213 0 0 0 0 3.11" data-name="Path 2002"/><path fill="none" stroke="#6b6b6b" stroke-miterlimit="10" d="M300.163 182.983a2.2 2.2 0 1 0 0-3.11 2.213 2.213 0 0 0 0 3.11Z" data-name="Path 2003"/><path fill="none" stroke="#6b6b6b" stroke-miterlimit="10" d="M311.176 193.418a2.2 2.2 0 1 0 0-3.11 2.213 2.213 0 0 0 0 3.11Z" data-name="Path 2004"/><path fill="#6b6b6b" d="M311.176 182.983a2.2 2.2 0 1 0 0-3.11 2.213 2.213 0 0 0 0 3.11" data-name="Path 2005"/><path fill="none" stroke="#6b6b6b" stroke-miterlimit="10" d="M237.755 182.983a2.2 2.2 0 1 0 0-3.11 2.213 2.213 0 0 0 0 3.11Z" data-name="Path 2006"/><path fill="none" stroke="#6b6b6b" stroke-miterlimit="10" stroke-width=".75" d="M225.269 182.983a2.2 2.2 0 1 0 0-3.11 2.213 2.213 0 0 0 0 3.11Z" data-name="Path 2007"/><path fill="#bfbfbf" d="M187.832 182.983a2.2 2.2 0 1 0 0-3.11 2.213 2.213 0 0 0 0 3.11" data-name="Path 2010"/><path fill="none" stroke="#6b6b6b" stroke-miterlimit="10" stroke-width=".75" d="M287.677 171.797a2.2 2.2 0 1 0 0-3.11 2.213 2.213 0 0 0 0 3.11Z" data-name="Path 2011"/><path fill="none" stroke="#6b6b6b" stroke-miterlimit="10" d="M275.202 171.797a2.2 2.2 0 1 0 0-3.11 2.213 2.213 0 0 0 0 3.11Z" data-name="Path 2012"/><path fill="none" stroke="#6b6b6b" stroke-miterlimit="10" stroke-width=".75" d="M225.269 171.797a2.2 2.2 0 1 0 0-3.11 2.213 2.213 0 0 0 0 3.11Z" data-name="Path 2013"/><path fill="#6b6b6b" d="M212.793 171.797a2.2 2.2 0 1 0 0-3.11 2.213 2.213 0 0 0 0 3.11" data-name="Path 2014"/><path fill="none" stroke="#6b6b6b" stroke-miterlimit="10" d="M200.307 171.797a2.2 2.2 0 1 0 0-3.11 2.213 2.213 0 0 0 0 3.11Z" data-name="Path 2015"/><path fill="none" stroke="#6b6b6b" stroke-miterlimit="10" d="M200.307 150.818a2.2 2.2 0 1 0 0-3.11 2.213 2.213 0 0 0 0 3.11Z" data-name="Path 2016"/><path fill="#6b6b6b" d="M187.832 171.797a2.2 2.2 0 1 0 0-3.11 2.213 2.213 0 0 0 0 3.11" data-name="Path 2017"/><path fill="#6b6b6b" d="M275.202 161.374a2.2 2.2 0 1 0 0-3.11 2.213 2.213 0 0 0 0 3.11" data-name="Path 2018"/><path fill="#6b6b6b" d="M212.793 161.374a2.2 2.2 0 1 0 0-3.11 2.213 2.213 0 0 0 0 3.11" data-name="Path 2019"/><path fill="#bfbfbf" d="M200.307 161.374a2.2 2.2 0 1 0 0-3.11 2.213 2.213 0 0 0 0 3.11" data-name="Path 2020"/><path fill="#bfbfbf" d="M187.832 161.374a2.2 2.2 0 1 0 0-3.11 2.213 2.213 0 0 0 0 3.11" data-name="Path 2021"/><path fill="#6b6b6b" d="M25.361 193.418a2.2 2.2 0 1 0 0-3.11 2.213 2.213 0 0 0 0 3.11" data-name="Path 2023"/><path fill="none" stroke="#6b6b6b" stroke-miterlimit="10" d="M12.885 193.418a2.2 2.2 0 1 0 0-3.11 2.213 2.213 0 0 0 0 3.11Z" data-name="Path 2024"/><path fill="none" stroke="#6b6b6b" stroke-miterlimit="10" d="M37.848 171.797a2.2 2.2 0 1 0 0-3.11 2.213 2.213 0 0 0 0 3.11Z" data-name="Path 2025"/><path fill="none" stroke="#6b6b6b" stroke-miterlimit="10" stroke-width=".75" d="M25.361 171.797a2.2 2.2 0 1 0 0-3.11 2.213 2.213 0 0 0 0 3.11Z" data-name="Path 2026"/><path fill="#6b6b6b" d="M50.421 171.797a2.2 2.2 0 1 0 0-3.11 2.213 2.213 0 0 0 0 3.11" data-name="Path 2027"/><path fill="none" stroke="#6b6b6b" stroke-miterlimit="10" d="M62.93 72.919a2.2 2.2 0 1 1 0 3.11 2.213 2.213 0 0 1 0-3.11Z" data-name="Path 2028"/><path fill="#6b6b6b" d="M87.891 83.353a2.2 2.2 0 1 1 0 3.11 2.213 2.213 0 0 1 0-3.11" data-name="Path 2029"/><path fill="#6b6b6b" d="M75.405 83.353a2.2 2.2 0 1 1 0 3.11 2.213 2.213 0 0 1 0-3.11" data-name="Path 2030"/><path fill="none" stroke="#6b6b6b" stroke-miterlimit="10" stroke-width=".75" d="M87.891 93.777a2.2 2.2 0 1 1 0 3.11 2.213 2.213 0 0 1 0-3.11Z" data-name="Path 2031"/><path fill="#6b6b6b" d="M75.405 93.777a2.2 2.2 0 1 1 0 3.11 2.213 2.213 0 0 1 0-3.11" data-name="Path 2032"/><path fill="#6b6b6b" d="M175.261 104.2a2.2 2.2 0 1 1 0 3.11 2.213 2.213 0 0 1 0-3.11" data-name="Path 2033"/><path fill="#6b6b6b" d="M175.261 93.777a2.2 2.2 0 1 1 0 3.11 2.213 2.213 0 0 1 0-3.11" data-name="Path 2034"/><path fill="none" stroke="#6b6b6b" stroke-miterlimit="10" stroke-width=".75" d="M162.776 104.2a2.2 2.2 0 1 1 0 3.11 2.213 2.213 0 0 1 0-3.11Z" data-name="Path 2035"/><path fill="#6b6b6b" d="M150.299 104.2a2.2 2.2 0 1 1 0 3.11 2.213 2.213 0 0 1 0-3.11" data-name="Path 2036"/><path fill="#6b6b6b" d="M150.299 93.777a2.2 2.2 0 1 1 0 3.11 2.213 2.213 0 0 1 0-3.11" data-name="Path 2037"/><path fill="none" stroke="#6b6b6b" stroke-miterlimit="10" stroke-width=".75" d="M137.812 104.2a2.2 2.2 0 1 1 0 3.11 2.213 2.213 0 0 1 0-3.11Z" data-name="Path 2038"/><path fill="#878787" d="M125.338 104.2a2.2 2.2 0 1 1 0 3.11 2.213 2.213 0 0 1 0-3.11" data-name="Path 2039"/><path fill="none" stroke="#6b6b6b" stroke-miterlimit="10" stroke-width=".75" d="M87.891 104.2a2.2 2.2 0 1 1 0 3.11 2.213 2.213 0 0 1 0-3.11Z" data-name="Path 2040"/><path fill="#bfbfbf" d="M75.405 104.2a2.2 2.2 0 1 1 0 3.11 2.213 2.213 0 0 1 0-3.11" data-name="Path 2041"/><path fill="#bfbfbf" d="M62.93 104.2a2.2 2.2 0 1 1 0 3.11 2.213 2.213 0 0 1 0-3.11" data-name="Path 2042"/><path fill="#6b6b6b" d="M162.776 115.386a2.2 2.2 0 1 1 0 3.11 2.213 2.213 0 0 1 0-3.11" data-name="Path 2043"/><path fill="none" stroke="#6b6b6b" stroke-miterlimit="10" d="M150.299 115.386a2.2 2.2 0 1 1 0 3.11 2.213 2.213 0 0 1 0-3.11Z" data-name="Path 2044"/><path fill="none" stroke="#6b6b6b" stroke-miterlimit="10" stroke-width=".75" d="M137.812 115.386a2.2 2.2 0 1 1 0 3.11 2.213 2.213 0 0 1 0-3.11Z" data-name="Path 2045"/><path fill="none" stroke="#6b6b6b" stroke-miterlimit="10" d="M112.853 134.656a2.2 2.2 0 1 1 0 3.11 2.213 2.213 0 0 1 0-3.11Z" data-name="Path 2046"/><path fill="#6b6b6b" d="M87.891 115.386a2.2 2.2 0 1 1 0 3.11 2.213 2.213 0 0 1 0-3.11" data-name="Path 2047"/><path fill="none" stroke="#6b6b6b" stroke-miterlimit="10" d="M75.405 115.386a2.2 2.2 0 1 1 0 3.11 2.213 2.213 0 0 1 0-3.11Z" data-name="Path 2048"/><path fill="#6b6b6b" d="M62.93 115.386a2.2 2.2 0 1 1 0 3.11 2.213 2.213 0 0 1 0-3.11" data-name="Path 2050"/><path fill="none" stroke="#6b6b6b" stroke-miterlimit="10" stroke-width=".75" d="M162.776 125.82a2.2 2.2 0 1 1 0 3.11 2.213 2.213 0 0 1 0-3.11Z" data-name="Path 2051"/><path fill="#6b6b6b" d="M137.812 125.82a2.2 2.2 0 1 1 0 3.11 2.213 2.213 0 0 1 0-3.11" data-name="Path 2052"/><path fill="#6b6b6b" d="M112.853 145.078a2.2 2.2 0 1 1 0 3.11 2.213 2.213 0 0 1 0-3.11" data-name="Path 2053"/><path fill="none" stroke="#6b6b6b" stroke-miterlimit="10" stroke-width=".75" d="M100.366 145.078a2.2 2.2 0 1 1 0 3.11 2.213 2.213 0 0 1 0-3.11Z" data-name="Path 2054"/><path fill="#6b6b6b" d="M87.891 125.82a2.2 2.2 0 1 1 0 3.11 2.213 2.213 0 0 1 0-3.11" data-name="Path 2055"/><path fill="#6b6b6b" d="M125.338 72.241a2.2 2.2 0 1 1 0 3.11 2.213 2.213 0 0 1 0-3.11" data-name="Path 2056"/><path fill="#6b6b6b" d="M125.338 82.664a2.2 2.2 0 1 1 0 3.11 2.213 2.213 0 0 1 0-3.11" data-name="Path 2061"/><path fill="none" stroke="#6b6b6b" stroke-miterlimit="10" d="M175.261 72.919a2.2 2.2 0 1 1 0 3.11 2.213 2.213 0 0 1 0-3.11Z" data-name="Path 2106"/><path fill="#6b6b6b" d="M137.812 75.016a2.2 2.2 0 1 1 0 3.11 2.213 2.213 0 0 1 0-3.11" data-name="Path 2109"/><path fill="#6b6b6b" d="M150.299 62.496a2.2 2.2 0 1 1 0 3.11 2.213 2.213 0 0 1 0-3.11" data-name="Path 2110"/><path fill="none" stroke="#6b6b6b" stroke-miterlimit="10" stroke-width=".75" d="M137.812 62.496a2.2 2.2 0 1 1 0 3.11 2.213 2.213 0 0 1 0-3.11Z" data-name="Path 2111"/><path fill="#878787" d="M125.338 63.174a2.2 2.2 0 1 1 0 3.11 2.213 2.213 0 0 1 0-3.11" data-name="Path 2113"/><path fill="#bfbfbf" d="M62.93 41.638a2.2 2.2 0 1 1 0 3.11 2.213 2.213 0 0 1 0-3.11" data-name="Path 2121"/><path fill="#ababab" d="M300.163 41.638a2.2 2.2 0 1 1 0 3.11 2.213 2.213 0 0 1 0-3.11" data-name="Path 2123"/><path fill="none" stroke="#6b6b6b" stroke-miterlimit="10" stroke-width=".75" d="M287.677 41.638a2.2 2.2 0 1 1 0 3.11 2.213 2.213 0 0 1 0-3.11Z" data-name="Path 2124"/><path fill="#6b6b6b" d="M275.202 41.638a2.2 2.2 0 1 1 0 3.11 2.213 2.213 0 0 1 0-3.11" data-name="Path 2125"/><path fill="#6b6b6b" d="M250.229 106.321a2.2 2.2 0 1 1 0 3.11 2.213 2.213 0 0 1 0-3.11" data-name="Path 2127"/><path fill="#6b6b6b" d="M237.755 106.321a2.2 2.2 0 1 1 0 3.11 2.213 2.213 0 0 1 0-3.11" data-name="Path 2128"/><path fill="none" stroke="#6b6b6b" stroke-miterlimit="10" stroke-width=".75" d="M225.269 41.638a2.2 2.2 0 1 1 0 3.11 2.213 2.213 0 0 1 0-3.11Z" data-name="Path 2129"/><path fill="#8a8a8a" d="M200.307 41.638a2.2 2.2 0 1 1 0 3.11 2.213 2.213 0 0 1 0-3.11" data-name="Path 2131"/><path fill="#ababab" d="M300.163 52.074a2.2 2.2 0 1 1 0 3.11 2.213 2.213 0 0 1 0-3.11" data-name="Path 2132"/><path fill="none" stroke="#6b6b6b" stroke-miterlimit="10" stroke-width=".75" d="M287.677 52.074a2.2 2.2 0 1 1 0 3.11 2.213 2.213 0 0 1 0-3.11Z" data-name="Path 2133"/><path fill="#6b6b6b" d="M275.202 52.074a2.2 2.2 0 1 1 0 3.11 2.213 2.213 0 0 1 0-3.11" data-name="Path 2134"/><path fill="none" stroke="#6b6b6b" stroke-miterlimit="10" stroke-width=".75" d="M262.716 52.074a2.2 2.2 0 1 1 0 3.11 2.213 2.213 0 0 1 0-3.11Z" data-name="Path 2135"/><path fill="#6b6b6b" d="M250.229 116.756a2.2 2.2 0 1 1 0 3.11 2.213 2.213 0 0 1 0-3.11" data-name="Path 2136"/><path fill="#6b6b6b" d="M237.755 116.756a2.2 2.2 0 1 1 0 3.11 2.213 2.213 0 0 1 0-3.11" data-name="Path 2137"/><path fill="none" stroke="#6b6b6b" stroke-miterlimit="10" stroke-width=".75" d="M225.269 52.074a2.2 2.2 0 1 1 0 3.11 2.213 2.213 0 0 1 0-3.11Z" data-name="Path 2138"/><path fill="#6b6b6b" d="M200.307 52.074a2.2 2.2 0 1 1 0 3.11 2.213 2.213 0 0 1 0-3.11" data-name="Path 2140"/><path fill="#ababab" d="M311.176 52.074a2.2 2.2 0 1 1 0 3.11 2.213 2.213 0 0 1 0-3.11" data-name="Path 2141"/><path fill="none" stroke="#adadad" stroke-miterlimit="10" stroke-width=".75" d="M262.716 62.496a2.2 2.2 0 1 1 0 3.11 2.213 2.213 0 0 1 0-3.11Z" data-name="Path 2142"/><path fill="#6b6b6b" d="M250.229 127.179a2.2 2.2 0 1 1 0 3.11 2.213 2.213 0 0 1 0-3.11" data-name="Path 2143"/><path fill="none" stroke="#6b6b6b" stroke-miterlimit="10" d="M237.755 127.179a2.2 2.2 0 1 1 0 3.11 2.213 2.213 0 0 1 0-3.11Z" data-name="Path 2144"/><path fill="none" stroke="#c4c4c4" stroke-miterlimit="10" stroke-width=".75" d="M225.269 62.496a2.2 2.2 0 1 1 0 3.11 2.213 2.213 0 0 1 0-3.11Z" data-name="Path 2145"/><path fill="#6b6b6b" d="M200.307 62.496a2.2 2.2 0 1 1 0 3.11 2.213 2.213 0 0 1 0-3.11" data-name="Path 2147"/><path fill="none" stroke="#6b6b6b" stroke-miterlimit="10" stroke-width=".75" d="M262.716 72.919a2.2 2.2 0 1 1 0 3.11 2.213 2.213 0 0 1 0-3.11Z" data-name="Path 2148"/><path fill="#6b6b6b" d="M237.755 137.602a2.2 2.2 0 1 1 0 3.11 2.213 2.213 0 0 1 0-3.11" data-name="Path 2149"/><path fill="none" stroke="#c4c4c4" stroke-miterlimit="10" stroke-width=".75" d="M225.269 72.919a2.2 2.2 0 1 1 0 3.11 2.213 2.213 0 0 1 0-3.11Z" data-name="Path 2150"/><path fill="none" stroke="#6b6b6b" stroke-miterlimit="10" stroke-width=".75" d="M212.793 72.919a2.2 2.2 0 1 1 0 3.11 2.213 2.213 0 0 1 0-3.11Z" data-name="Path 2151"/><path fill="#6b6b6b" d="M200.307 72.919a2.2 2.2 0 1 1 0 3.11 2.213 2.213 0 0 1 0-3.11" data-name="Path 2152"/><path fill="none" stroke="#6b6b6b" stroke-miterlimit="10" stroke-width=".75" d="M262.716 83.353a2.2 2.2 0 1 1 0 3.11 2.213 2.213 0 0 1 0-3.11Z" data-name="Path 2153"/><path fill="#6b6b6b" d="M237.755 148.036a2.2 2.2 0 1 1 0 3.11 2.213 2.213 0 0 1 0-3.11" data-name="Path 2154"/><path fill="none" stroke="#6b6b6b" stroke-miterlimit="10" stroke-width=".75" d="M225.269 83.353a2.2 2.2 0 1 1 0 3.11 2.213 2.213 0 0 1 0-3.11Z" data-name="Path 2155"/><path fill="#6b6b6b" d="M212.793 83.353a2.2 2.2 0 1 1 0 3.11 2.213 2.213 0 0 1 0-3.11" data-name="Path 2156"/><path fill="#6b6b6b" d="M237.755 158.458a2.2 2.2 0 1 1 0 3.11 2.213 2.213 0 0 1 0-3.11" data-name="Path 2157"/><path fill="none" stroke="#6b6b6b" stroke-miterlimit="10" stroke-width=".75" d="M225.269 93.777a2.2 2.2 0 1 1 0 3.11 2.213 2.213 0 0 1 0-3.11Z" data-name="Path 2158"/><path fill="none" stroke="#6b6b6b" stroke-miterlimit="10" stroke-width=".75" d="M212.793 93.777a2.2 2.2 0 1 1 0 3.11 2.213 2.213 0 0 1 0-3.11Z" data-name="Path 2159"/><path fill="#6b6b6b" d="M200.307 93.777a2.2 2.2 0 1 1 0 3.11 2.213 2.213 0 0 1 0-3.11" data-name="Path 2160"/><path fill="#6b6b6b" d="M187.832 93.777a2.2 2.2 0 1 1 0 3.11 2.213 2.213 0 0 1 0-3.11" data-name="Path 2161"/><path fill="none" stroke="#6b6b6b" stroke-miterlimit="10" d="M300.163 158.543a2.2 2.2 0 1 1 0 3.11 2.213 2.213 0 0 1 0-3.11Z" data-name="Path 2162"/><path fill="none" stroke="#6b6b6b" stroke-miterlimit="10" d="M237.755 168.881a2.2 2.2 0 1 1 0 3.11 2.213 2.213 0 0 1 0-3.11Z" data-name="Path 2163"/><path fill="none" stroke="#6b6b6b" stroke-miterlimit="10" stroke-width=".75" d="M225.269 104.2a2.2 2.2 0 1 1 0 3.11 2.213 2.213 0 0 1 0-3.11Z" data-name="Path 2164"/><path fill="none" stroke="#6b6b6b" stroke-miterlimit="10" stroke-width=".75" d="M212.793 104.2a2.2 2.2 0 1 1 0 3.11 2.213 2.213 0 0 1 0-3.11Z" data-name="Path 2165"/><path fill="#bfbfbf" d="M200.307 104.2a2.2 2.2 0 1 1 0 3.11 2.213 2.213 0 0 1 0-3.11" data-name="Path 2166"/><path fill="#bfbfbf" d="M187.832 104.2a2.2 2.2 0 1 1 0 3.11 2.213 2.213 0 0 1 0-3.11" data-name="Path 2167"/><path fill="none" stroke="#6b6b6b" stroke-miterlimit="10" stroke-width=".75" d="M225.269 115.386a2.2 2.2 0 1 1 0 3.11 2.213 2.213 0 0 1 0-3.11Z" data-name="Path 2168"/><path fill="#6b6b6b" d="M212.793 115.386a2.2 2.2 0 1 1 0 3.11 2.213 2.213 0 0 1 0-3.11" data-name="Path 2169"/><path fill="none" stroke="#6b6b6b" stroke-miterlimit="10" d="M200.307 115.386a2.2 2.2 0 1 1 0 3.11 2.213 2.213 0 0 1 0-3.11Z" data-name="Path 2170"/><path fill="none" stroke="#6b6b6b" stroke-miterlimit="10" d="M200.307 136.377a2.2 2.2 0 1 1 0 3.11 2.213 2.213 0 0 1 0-3.11Z" data-name="Path 2171"/><path fill="#6b6b6b" d="M187.832 115.386a2.2 2.2 0 1 1 0 3.11 2.213 2.213 0 0 1 0-3.11" data-name="Path 2172"/><path fill="#6b6b6b" d="M275.202 125.82a2.2 2.2 0 1 1 0 3.11 2.213 2.213 0 0 1 0-3.11" data-name="Path 2173"/><path fill="#6b6b6b" d="M212.793 125.82a2.2 2.2 0 1 1 0 3.11 2.213 2.213 0 0 1 0-3.11" data-name="Path 2174"/><path fill="#bfbfbf" d="M200.307 125.82a2.2 2.2 0 1 1 0 3.11 2.213 2.213 0 0 1 0-3.11" data-name="Path 2175"/><path fill="#bfbfbf" d="M187.832 125.82a2.2 2.2 0 1 1 0 3.11 2.213 2.213 0 0 1 0-3.11" data-name="Path 2176"/><path fill="none" stroke="#6b6b6b" stroke-miterlimit="10" d="M237.755 30.477a2.2 2.2 0 1 1 0 3.11 2.213 2.213 0 0 1 0-3.11Z" data-name="Path 2192"/><path fill="#6b6b6b" d="M237.755 40.911a2.2 2.2 0 1 1 0 3.11 2.213 2.213 0 0 1 0-3.11" data-name="Path 2199"/><path fill="#6b6b6b" d="M237.755 51.335a2.2 2.2 0 1 1 0 3.11 2.213 2.213 0 0 1 0-3.11" data-name="Path 2216"/><path fill="#6b6b6b" d="M250.229 61.757a2.2 2.2 0 1 1 0 3.11 2.213 2.213 0 0 1 0-3.11" data-name="Path 2225"/><path fill="#6b6b6b" d="M237.755 61.757a2.2 2.2 0 1 1 0 3.11 2.213 2.213 0 0 1 0-3.11" data-name="Path 2226"/><path fill="#878787" d="M250.229 72.192a2.2 2.2 0 1 1 0 3.11 2.213 2.213 0 0 1 0-3.11" data-name="Path 2236"/><path fill="none" stroke="#6b6b6b" stroke-miterlimit="10" d="M237.755 72.192a2.2 2.2 0 1 1 0 3.11 2.213 2.213 0 0 1 0-3.11Z" data-name="Path 2237"/><path fill="#6b6b6b" d="M250.229 83.379a2.2 2.2 0 1 1 0 3.11 2.213 2.213 0 0 1 0-3.11" data-name="Path 2246"/><path fill="none" stroke="#6b6b6b" stroke-miterlimit="10" d="M237.755 83.379a2.2 2.2 0 1 1 0 3.11 2.213 2.213 0 0 1 0-3.11Z" data-name="Path 2247"/><path fill="#878787" d="M250.229 93.801a2.2 2.2 0 1 1 0 3.11 2.213 2.213 0 0 1 0-3.11" data-name="Path 2255"/><path fill="#6b6b6b" d="M237.755 93.801a2.2 2.2 0 1 1 0 3.11 2.213 2.213 0 0 1 0-3.11" data-name="Path 2256"/><path fill="#6b6b6b" d="M37.848 83.353a2.2 2.2 0 1 1 0 3.11 2.213 2.213 0 0 1 0-3.11" data-name="Path 2263"/><path fill="none" stroke="#6b6b6b" stroke-miterlimit="10" d="M37.848 93.777a2.2 2.2 0 1 1 0 3.11 2.213 2.213 0 0 1 0-3.11Z" data-name="Path 2264"/><path fill="#6b6b6b" d="M25.361 93.777a2.2 2.2 0 1 1 0 3.11 2.213 2.213 0 0 1 0-3.11" data-name="Path 2265"/><path fill="none" stroke="#6b6b6b" stroke-miterlimit="10" d="M12.885 168.881a2.2 2.2 0 1 1 0 3.11 2.213 2.213 0 0 1 0-3.11Z" data-name="Path 2266"/><path fill="none" stroke="#6b6b6b" stroke-miterlimit="10" d="M37.859 158.446a2.2 2.2 0 1 1-.035 3.11 2.19 2.19 0 0 1 .035-3.11Z" data-name="Path 2267"/><path fill="none" stroke="#6b6b6b" stroke-miterlimit="10" stroke-width=".75" d="M25.372 158.361a2.2 2.2 0 1 1-.035 3.11 2.19 2.19 0 0 1 .035-3.11Z" data-name="Path 2268"/><path fill="#6b6b6b" d="M25.361 136.347a2.2 2.2 0 1 0 0-3.11 2.213 2.213 0 0 0 0 3.11" data-name="Path 2269"/><path fill="#6b6b6b" d="M25.372 122.912a2.2 2.2 0 1 1-.035 3.11 2.19 2.19 0 0 1 .035-3.11" data-name="Path 2270"/><path fill="none" stroke="#6b6b6b" stroke-miterlimit="10" d="M50.421 72.919a2.2 2.2 0 1 1 0 3.11 2.213 2.213 0 0 1 0-3.11Z" data-name="Path 2278"/><path fill="#6b6b6b" d="M50.421 83.353a2.2 2.2 0 1 1 0 3.11 2.213 2.213 0 0 1 0-3.11" data-name="Path 2279"/><path fill="#6b6b6b" d="M50.431 158.534a2.2 2.2 0 1 1-.036 3.11 2.19 2.19 0 0 1 .036-3.11" data-name="Path 2280"/><path fill="#6b6b6b" d="M1.302 193.418a2.2 2.2 0 1 0 0-3.11 2.213 2.213 0 0 0 0 3.11" data-name="Path 2290"/><path fill="none" stroke="#6b6b6b" stroke-miterlimit="10" d="M1.302 116.254a2.2 2.2 0 1 0 0-3.11 2.213 2.213 0 0 0 0 3.11Z" data-name="Path 2291"/><path fill="#6b6b6b" d="M12.314 182.983a2.2 2.2 0 1 0 0-3.11 2.213 2.213 0 0 0 0 3.11" data-name="Path 2292"/><path fill="none" stroke="#6b6b6b" stroke-miterlimit="10" stroke-width=".75" d="M2.168 52.074a2.2 2.2 0 1 1 0 3.11 2.213 2.213 0 0 1 0-3.11Z" data-name="Path 2293"/><path fill="none" stroke="#c4c4c4" stroke-miterlimit="10" stroke-width=".75" d="M2.168 62.496a2.2 2.2 0 1 1 0 3.11 2.213 2.213 0 0 1 0-3.11Z" data-name="Path 2294"/><path fill="none" stroke="#6b6b6b" stroke-miterlimit="10" d="M25.361 51.335a2.2 2.2 0 1 1 0 3.11 2.213 2.213 0 0 1 0-3.11Z" data-name="Path 2296"/><path fill="#6b6b6b" d="M14.642 61.757a2.2 2.2 0 1 1 0 3.11 2.213 2.213 0 0 1 0-3.11" data-name="Path 2297"/></g></svg>