<svg xmlns="http://www.w3.org/2000/svg" width="798.473" height="495.583" viewBox="0 0 798.473 495.583"><g fill="#747474" data-name="Path 2619"><path d="M737.45 495.083H180.6c-8.06 0-15.877-1.58-23.237-4.696a59.7 59.7 0 0 1-10.14-5.509 60 60 0 0 1-8.836-7.296 60 60 0 0 1-7.29-8.844 60 60 0 0 1-5.504-10.15c-3.113-7.366-4.692-15.191-4.692-23.258.005-.485.461-49.63 0-109.204-.05-6.615-.49-12.75-1.303-18.236-.777-5.235-1.921-10.052-3.4-14.317-2.739-7.89-6.637-14.13-11.92-19.076-9.79-9.167-22.847-12.284-35.475-15.298-2.793-.667-5.68-1.356-8.476-2.098-15.651-4.158-29.98-11.374-40.35-20.32-6.063-5.23-10.79-11.04-14.046-17.27C2.328 212.62.5 205.158.5 197.332V60.256c0-8.067 1.578-15.893 4.69-23.26a59.8 59.8 0 0 1 12.795-18.993 60 60 0 0 1 8.836-7.298 59.7 59.7 0 0 1 10.14-5.51C44.322 2.08 52.14.5 60.2.5h641.296a171 171 0 0 0-10.005 7.776c-3.708 3.105-7.159 6.257-10.258 9.367-3.877 3.892-7.21 7.731-9.906 11.41-11.586 15.812-11.572 28.57-11.565 34.702v.434l.002.022c.542 6.072 1.216 10.924 2.122 15.27 1.073 5.151 2.504 9.711 4.373 13.94 4.222 9.554 10.806 17.757 20.723 25.817 8.562 6.959 21.974 10.31 36.173 13.859 10.399 2.598 21.15 5.285 31.09 9.573 5.367 2.316 9.957 4.86 14.03 7.778 4.537 3.25 8.447 7.02 11.622 11.204 8.754 11.537 13.944 22.937 16.332 35.876 2.159 11.7 1.835 23.689 1.493 36.381-.136 5.026-.277 10.222-.277 15.647l-.297 185.773c0 8.068-1.578 15.893-4.69 23.26a60 60 0 0 1-5.505 10.15 60.1 60.1 0 0 1-16.126 16.14 59.7 59.7 0 0 1-10.14 5.508c-7.36 3.116-15.178 4.696-23.238 4.696"/><path d="M737.45 494.583c7.991 0 15.744-1.567 23.042-4.656a59 59 0 0 0 10.056-5.463 59.7 59.7 0 0 0 8.762-7.236 59.4 59.4 0 0 0 12.688-18.835c3.085-7.303 4.65-15.063 4.65-23.065l.297-185.772c0-5.432.141-10.631.277-15.66.342-12.666.665-24.63-1.485-36.277-2.373-12.86-7.533-24.193-16.239-35.665-3.144-4.145-7.018-7.879-11.514-11.1-4.044-2.897-8.603-5.424-13.937-7.725-9.901-4.272-20.634-6.954-31.013-9.547-14.255-3.563-27.719-6.927-36.367-13.956-5.152-4.187-9.36-8.375-12.862-12.801-3.307-4.178-5.924-8.496-8.004-13.202-1.883-4.261-3.324-8.854-4.405-14.04-.91-4.365-1.586-9.235-2.13-15.328l-.004-.044v-.455c-.007-6.185-.02-19.055 11.662-34.998 2.71-3.7 6.06-7.558 9.956-11.468 3.108-3.12 6.57-6.283 10.29-9.398A175 175 0 0 1 699.953 1H60.2c-7.992 0-15.745 1.567-23.043 4.656a59 59 0 0 0-10.055 5.464 59.6 59.6 0 0 0-8.762 7.236 59.7 59.7 0 0 0-7.23 8.77 59.3 59.3 0 0 0-5.458 10.065c-3.087 7.305-4.651 15.065-4.651 23.065V197.33c0 7.745 1.808 15.13 5.374 21.949 3.227 6.173 7.914 11.934 13.93 17.123 10.312 8.897 24.572 16.075 40.152 20.214 2.788.741 5.673 1.43 8.463 2.096 12.69 3.029 25.814 6.162 35.7 15.419 5.344 5.003 9.285 11.309 12.05 19.277 1.49 4.294 2.642 9.142 3.423 14.407.818 5.51 1.258 11.668 1.31 18.307.46 59.563.004 108.703 0 109.216 0 7.997 1.566 15.753 4.651 23.055a59.3 59.3 0 0 0 5.458 10.065 59.6 59.6 0 0 0 15.991 16.006 59 59 0 0 0 10.056 5.462c7.297 3.09 15.05 4.656 23.042 4.656zm0 1H180.601c-33.247 0-60.199-26.976-60.199-60.253 0 0 .467-48.941 0-109.2s-32.34-61.144-60.202-68.546C32.337 250.182 0 230.608 0 197.33V60.256C0 26.979 26.953 0 60.2 0h642.877s-19.59 13.308-31.346 29.35c-11.755 16.04-11.47 28.9-11.47 34.817 1.913 21.426 6.287 37.819 27.037 54.683 20.749 16.865 70.061 12.273 92.997 42.5 22.936 30.225 17.65 54.929 17.65 88.206l-.297 185.774c0 33.277-26.95 60.253-60.199 60.253"/></g></svg>