<svg xmlns="http://www.w3.org/2000/svg" id="Layer_1" viewBox="0 0 473 415"><defs><style>.st0{fill:#747474}</style></defs><path d="M.5 312V64C.5 29 29 .5 64 .5h306c21.8 0 41.1 11.1 52.5 27.9.7 0 1.2.4 1.7.7C412.7 11.3 392.7-.5 370-.5H64C28.4-.5-.5 28.4-.5 64v248c0 22.8 11.8 42.8 29.7 54.3-.3-.5-.5-1-.6-1.6C11.7 353.3.5 334 .5 312.1Z" class="st0"/><path d="M445.8 50.8c-11.2-19.3-32-32.3-55.9-32.3H83c-35.6 0-64.5 28.9-64.5 64.5v249c0 24.1 13.3 45.2 33 56.2-.4-.3-.6-.7-.8-1.1-.2-.3-.3-.5-.4-.8C31.9 375.2 19.6 355 19.6 332V83c0-35 28.5-63.5 63.5-63.5h307c23 0 43.2 12.3 54.3 30.7.6 0 1.1.3 1.4.6" class="st0"/><path d="M409 415.5H103c-35.6 0-64.5-28.9-64.5-64.5V103c0-35.6 28.9-64.5 64.5-64.5h306c35.6 0 64.5 28.9 64.5 64.5v248c0 35.6-28.9 64.5-64.5 64.5m-306-376C68 39.5 39.5 68 39.5 103v248c0 35 28.5 63.5 63.5 63.5h306c35 0 63.5-28.5 63.5-63.5V103c0-35-28.5-63.5-63.5-63.5z" class="st0"/></svg>