<svg xmlns="http://www.w3.org/2000/svg" id="Layer_1" viewBox="0 0 429.4 428.4"><defs><style>.st0{fill:none}.st1{fill:#747474}</style></defs><ellipse cx="214.7" cy="214.2" class="st0" rx="211.1" ry="210.6" transform="rotate(-1 215.868 213.889)"/><path d="M214.6 424.8c-114.7 0-209-92-211-206.9C1.6 101.8 94.7 5.7 211 3.7c56.4-1 109.7 20 150.3 59.1s63.4 91.6 64.4 147.8c2 116.1-91 212.2-207.4 214.2zm.2-420.1H211C95.2 6.7 2.7 102.3 4.7 217.9c2 114.3 95.8 205.9 210 205.9h3.7c115.8-2 208.4-97.7 206.4-213.2-1-56-23.7-108.2-64.1-147.1-39.5-38-91.2-58.8-145.9-58.8" class="st1"/><circle cx="214.7" cy="204.9" r="201.4" class="st0"/><path d="M214.6 406.2c-52.4 0-102-20-139.8-56.5-38.7-37.4-60.5-87.6-61.5-141.3-.9-53.8 19.1-104.7 56.5-143.4S157.4 4.5 211.2 3.6C322.3 1.7 414.1 90.4 416 201.4c.9 53.8-19.1 104.7-56.5 143.4s-87.6 60.5-141.3 61.5h-3.6Zm.1-401.7h-3.5c-53.5.9-103.5 22.6-140.6 61.1-37.2 38.6-57.2 89.3-56.3 142.8S36.9 311.9 75.4 349s89.1 57.1 142.7 56.2c53.5-.9 103.5-22.6 140.6-61.1 37.2-38.5 57.1-89.2 56.2-142.7C413 92.1 323.5 4.5 214.6 4.5Z" class="st1"/><circle cx="214.8" cy="194.4" r="191" class="st0"/><path d="M214.8 385.4c-105.3 0-191-85.7-191-191s85.7-191 191-191 191 85.7 191 191-85.7 191-191 191m0-381c-104.7 0-190 85.2-190 190s85.2 190 190 190 190-85.2 190-190-85.2-190-190-190" class="st1"/></svg>