<svg xmlns="http://www.w3.org/2000/svg" width="420" height="420" fill="none" viewBox="0 0 420 420"><defs><radialGradient id="a" cx="0" cy="0" r="1" gradientTransform="rotate(126 95.852 134.493)scale(130 112)" gradientUnits="userSpaceOnUse"><stop offset="0" stopColor="#fff" stop-opacity=".3"/><stop offset="1" stopColor="#fff" stop-opacity="0"/></radialGradient><linearGradient id="b" x1="226" x2="70" y1="186" y2="320" gradientUnits="userSpaceOnUse"><stop stopColor="#fff" stop-opacity=".22"/><stop offset="1" stopColor="#fff" stop-opacity=".05"/></linearGradient><filter id="c" width="280%" height="280%" x="-90%" y="-90%" color-interpolation-filters="sRGB"><feGaussianBlur result="b1" stdDeviation="2.8"/><feGaussianBlur in="SourceGraphic" result="b2" stdDeviation="6.2"/><feBlend in="b2" in2="b1" mode="screen" result="b"/><feMerge><feMergeNode in="b"/><feMergeNode in="SourceGraphic"/></feMerge></filter></defs><circle cx="257" cy="140" r="96" fill="url(#a)"/><path fill="url(#b)" d="M224 182 59 320l53 34 174-156 66 7-30-38-70 2Z"/><circle cx="258" cy="140" r="84" stroke="rgba(255,255,255,0.68)" stroke-width="1.35"/><circle cx="288" cy="119" r="26.6" stroke="rgba(255,255,255,0.86)" stroke-width="1.45"/><circle cx="288" cy="119" r="20.8" stroke="rgba(255,255,255,0.44)"/><path d="m181 156 7-42m0 0 25-32m0 0 37-20m0 0 41-4m0 0 35 16m0 0 23 29m0 0 7 38m0 0-9 38m0 0-24 27m0 0-39 15m0 0-40-3m0 0-33-19m0 0-22-31m0 0-8-12m7-42 41 6m0 0 21-58m-21 58 38-8m0 0 24-54m-24 54 38-7m0 0 21-31m-21 31 15 32m0 0 29-34m-29 34-11 33m0 0 47-29m-47 29-24 21m0 0 62-12m-62 12-35 3m0 0 73 12m-73-12-27-21m0 0 21 45m-21-45 6-53m-6 53-34-5m44-26 18 15m0 0 16-24m0 0-34 9m18 15 34 34m-18-58 38-28m-81 77-14 14m0 0-24 18m0 0-22 16m0 0-23 17m0 0-21 18m0 0-21 18m0 0-21 18m0 0-19 19m193-151-15 17m0 0-23 18m0 0-22 17m0 0-22 18m0 0-21 18m0 0-21 18m0 0-21 17m0 0-21 18m0 0-20 17m144-131 4 8m-28 10 6 7m-28 9 6 9m-29 8 8 10m-29 8 8 10m-29 8 8 9m-29 9 8 9m-27 10 7 7m120-113 28-10m-50 26 28-9m-51 26 29-8m-50 26 29-8m-50 26 29-8m-50 26 29-9m-48 28 27-10m26 44-20-21m0 0-26-6m46 27-5-62m5 62 37-97m203-52-30-38m0 0-36 31m0 0-34-29" style="stroke:rgba(255,255,255,.6);stroke-width:.96"/><g style="fill:rgba(255,255,255,.9)"><circle cx="181" cy="156" r="2.3"/><circle cx="188" cy="114" r="2.2"/><circle cx="213" cy="82" r="2.2"/><circle cx="250" cy="62" r="2.2"/><circle cx="291" cy="58" r="2.2"/><circle cx="326" cy="74" r="2.2"/><circle cx="349" cy="103" r="2.2"/><circle cx="356" cy="141" r="2.2"/><circle cx="347" cy="179" r="2.2"/><circle cx="323" cy="206" r="2.2"/><circle cx="284" cy="221" r="2.2"/><circle cx="244" cy="218" r="2.2"/><circle cx="211" cy="199" r="2.2"/><circle cx="189" cy="168" r="2.2"/><circle cx="229" cy="120" r="2.1"/><circle cx="267" cy="112" r="2.1"/><circle cx="305" cy="105" r="2.1"/><circle cx="320" cy="137" r="2.1"/><circle cx="309" cy="170" r="2.1"/><circle cx="285" cy="191" r="2.1"/><circle cx="250" cy="194" r="2.1"/><circle cx="223" cy="173" r="2.1"/><circle cx="233" cy="142" r="2.1"/><circle cx="251" cy="157" r="2.1"/><circle cx="267" cy="133" r="2.1"/><circle cx="224" cy="182" r="2.1"/><circle cx="210" cy="196" r="2.1"/><circle cx="186" cy="214" r="2.1"/><circle cx="164" cy="230" r="2.1"/><circle cx="141" cy="247" r="2.1"/><circle cx="120" cy="265" r="2.1"/><circle cx="99" cy="283" r="2.1"/><circle cx="78" cy="301" r="2.1"/><circle cx="59" cy="320" r="2.1"/><circle cx="252" cy="169" r="2.1"/><circle cx="237" cy="186" r="2.1"/><circle cx="214" cy="204" r="2.1"/><circle cx="192" cy="221" r="2.1"/><circle cx="170" cy="239" r="2.1"/><circle cx="149" cy="257" r="2.1"/><circle cx="128" cy="275" r="2.1"/><circle cx="107" cy="292" r="2.1"/><circle cx="86" cy="310" r="2.1"/><circle cx="66" cy="327" r="2.1"/><circle cx="112" cy="354" r="2.1"/><circle cx="92" cy="333" r="2.1"/><circle cx="352" cy="205" r="2.1"/><circle cx="322" cy="167" r="2.1"/><circle cx="286" cy="198" r="2.1"/></g><g style="fill:#fff;filter:url(#c)"><circle cx="250" cy="62" r="6"/><circle cx="289" cy="58" r="5.4"/><circle cx="305" cy="105" r="4.8"/><circle cx="356" cy="141" r="4.2"/><circle cx="323" cy="206" r="4.6"/><circle cx="250" cy="194" r="5.2"/><circle cx="223" cy="173" r="4.7"/><circle cx="214" cy="204" r="4.2"/><circle cx="149" cy="257" r="4.4"/><circle cx="107" cy="292" r="4"/><circle cx="86" cy="310" r="4.4"/><circle cx="66" cy="327" r="5"/><circle cx="112" cy="354" r="4.8"/></g><g style="fill:rgba(255,255,255,.42);filter:url(#c)"><circle cx="250" cy="62" r="10"/><circle cx="289" cy="58" r="9.2"/><circle cx="305" cy="105" r="8.2"/><circle cx="356" cy="141" r="7.2"/><circle cx="323" cy="206" r="7.8"/><circle cx="250" cy="194" r="8.4"/><circle cx="223" cy="173" r="7.6"/><circle cx="214" cy="204" r="7.2"/><circle cx="149" cy="257" r="7.4"/><circle cx="107" cy="292" r="6.6"/><circle cx="86" cy="310" r="7.2"/><circle cx="66" cy="327" r="8"/><circle cx="112" cy="354" r="7.8"/></g></svg>