<svg width="1581" height="1486" viewBox="0 0 1581 1486" fill="none" xmlns="http://www.w3.org/2000/svg">
<mask id="mask0_0_8845" style="mask-type:luminance" maskUnits="userSpaceOnUse" x="0" y="0" width="1581" height="1486">
<path fill-rule="evenodd" clip-rule="evenodd" d="M396.944 0.000106581L1580.63 1028.96L1183.69 1485.59L0 456.631L396.944 0.000106581V0.000106581Z" fill="white"/>
</mask>
<g mask="url(#mask0_0_8845)">
<path d="M-436.703 77.0117L446.674 844.92L740.32 829.185L956.306 1016.94L1160.29 1010.48L1408.86 1226.55" stroke="#707070" stroke-width="0.25"/>
<path d="M-432.986 54.123L450.408 822.046L744.054 806.311L960.04 994.065L1164.01 987.588L1412.6 1203.68" stroke="#707070" stroke-width="0.25"/>
<path d="M-429.252 31.249L454.143 799.172L747.8 783.424L963.785 971.177L1167.75 964.714L1416.33 1180.81" stroke="#707070" stroke-width="0.25"/>
<path d="M-425.518 8.375L457.877 776.298L751.517 760.535L967.504 948.289L1171.48 941.84L1420.07 1157.93" stroke="#707070" stroke-width="0.25"/>
<path d="M-421.77 -14.5134L461.608 753.395L755.253 737.66L971.24 925.414L1175.22 918.965L1423.79 1135.04" stroke="#707070" stroke-width="0.25"/>
<path d="M-418.053 -37.4021L465.342 730.521L758.988 714.787L974.973 902.54L1178.93 896.076L1427.52 1112.17" stroke="#707070" stroke-width="0.25"/>
<path d="M-414.318 -60.2771L469.076 707.646L762.722 691.911L978.708 879.665L1182.67 873.201L1431.25 1089.29" stroke="#707070" stroke-width="0.25"/>
<path d="M-361.691 -40.6484L472.812 684.774L766.439 669.023L982.426 856.778L1186.41 850.315L1435 1066.41" stroke="#707070" stroke-width="0.25"/>
<path d="M-360.84 -66.0288L476.545 661.898L770.173 646.148L986.16 833.903L1190.15 827.439L1438.73 1043.53" stroke="#707070" stroke-width="0.25"/>
<path d="M-317.377 -54.3677L480.262 639.009L773.907 623.274L989.894 811.028L1193.86 804.55L1442.45 1020.64" stroke="#707070" stroke-width="0.25"/>
</g>
</svg>
