<svg width="1472" height="1591" viewBox="0 0 1472 1591" fill="none" xmlns="http://www.w3.org/2000/svg">
<mask id="mask0_0_4621" style="mask-type:luminance" maskUnits="userSpaceOnUse" x="0" y="0" width="1472" height="1591">
<path fill-rule="evenodd" clip-rule="evenodd" d="M463.489 5.76518e-05L1471.64 1201.46L1008.15 1590.38L0 388.914L463.489 5.76518e-05V5.76518e-05Z" fill="white"/>
</mask>
<g mask="url(#mask0_0_4621)">
<path d="M-371.939 -54.3473L380.434 842.297L672.926 872.692L856.882 1091.92L1059.37 1117.45L1271.08 1369.75" stroke="#707070" stroke-width="0.5"/>
<path d="M-364.688 -76.3739L387.701 820.289L680.193 850.684L864.149 1069.91L1066.62 1095.42L1278.34 1347.74" stroke="#707070" stroke-width="0.5"/>
<path d="M-357.424 -98.3817L394.965 798.281L687.47 828.664L871.426 1047.89L1073.89 1073.42L1285.61 1325.74" stroke="#707070" stroke-width="0.5"/>
<path d="M-350.154 -120.391L402.235 776.271L694.725 806.637L878.682 1025.87L1081.16 1051.41L1292.88 1303.73" stroke="#707070" stroke-width="0.5"/>
<path d="M-342.871 -142.411L409.503 754.234L701.994 784.629L885.951 1003.86L1088.43 1029.4L1300.13 1281.7" stroke="#707070" stroke-width="0.5"/>
<path d="M-335.621 -164.437L416.768 732.225L709.26 762.62L893.215 981.85L1095.68 1007.37L1307.4 1259.69" stroke="#707070" stroke-width="0.5"/>
<path d="M-328.355 -186.445L424.033 710.217L716.525 740.612L900.481 959.842L1102.94 985.365L1314.66 1237.68" stroke="#707070" stroke-width="0.5"/>
<path d="M-279.447 -158.826L431.301 688.211L723.777 718.587L907.733 937.818L1110.22 963.345L1321.94 1215.67" stroke="#707070" stroke-width="0.5"/>
<path d="M-274.633 -183.759L438.569 666.202L731.046 696.579L915.002 915.81L1117.49 941.336L1329.21 1193.66" stroke="#707070" stroke-width="0.5"/>
<path d="M-233.531 -165.442L445.819 644.176L738.311 674.571L922.267 893.801L1124.74 919.312L1336.46 1171.63" stroke="#707070" stroke-width="0.5"/>
</g>
</svg>
