<svg xmlns="http://www.w3.org/2000/svg" viewBox="0 0 430 429" fill="none">
<path d="M425.245 210.544C427.27 326.542 334.653 422.226 218.376 424.255C102.1 426.285 6.19845 333.892 4.17369 217.894C2.14912 101.896 94.7673 6.21317 211.044 4.18356C327.32 2.15414 423.22 94.5461 425.245 210.544Z" stroke="#747474" stroke-width="1"/>
<path d="M415.489 201.386C417.425 312.299 329.082 403.781 218.169 405.718C107.257 407.654 15.7741 319.31 13.8381 208.397C11.9023 97.4848 100.246 6.0029 211.159 4.06692C322.071 2.13116 413.553 90.4741 415.489 201.386Z" stroke="#747474" stroke-width="1"/>
<path d="M214.84 3.85693C320.05 3.85693 405.34 89.1468 405.34 194.357C405.34 299.567 320.05 384.857 214.84 384.857C109.63 384.857 24.3398 299.567 24.3398 194.357C24.3398 89.1468 109.63 3.85693 214.84 3.85693Z" stroke="#747474" stroke-width="1"/>
</svg>
