<svg xmlns="http://www.w3.org/2000/svg" width="1336.56" viewBox="0 0 1336.56 1257.16"><g fill="#707070"><path d="m1538.75 205.58-320.94 74.1-.04.01-114.68 168.81-278.8 64.36-.05.02L664.39 759.7 0 913.09v.25l664.5-153.41.05-.01L824.39 513.1l278.8-64.37.05-.01 114.68-168.81 320.89-74.09z"/><path d="m1506.1 172.65-320.93 74.1-.05.01-114.66 168.81-278.8 64.36-.05.01-159.86 246.82L0 872.61v.25l631.85-145.87.05-.01 159.87-246.82 278.8-64.36.05-.01 114.65-168.81 320.89-74.08z"/><path d="m1489.79 156.19-320.93 74.09-.05.01-114.66 168.81-278.8 64.37-.05.01-159.86 246.81L0 852.37v.26l615.54-142.11.05-.01L775.46 463.7l278.8-64.37.05-.01 114.65-168.8 320.89-74.09z"/><path d="m1473.49 139.7-320.94 74.1-.05.01-114.67 168.83L759.03 447l-.05.02-159.85 246.8L0 832.14v.26l599.23-138.34.05-.02 159.85-246.8 278.8-64.37.05-.01 114.67-168.83 320.89-74.08z"/><path d="m1457.17 123.24-320.93 74.09-.05.01-114.68 168.83-278.8 64.37-.05.01-159.84 246.81L0 811.91v.26l582.92-134.58.05-.01 159.85-246.81 278.8-64.37.05-.01 114.67-168.83 320.89-74.08z"/><path d="m1440.84 106.78-320.94 74.09-.05.01-114.65 168.83-278.8 64.36-.05.01L566.48 660.9 0 791.68v.26l566.59-130.81.05-.01L726.51 414.3l278.8-64.36.05-.01 114.65-168.83 320.89-74.08z"/><path d="m1522.42 189.12-320.92 74.09-.05.01-114.67 168.81-278.8 64.37-.05.01-159.87 246.81L0 892.84v.26l648.16-149.64.05-.02 159.87-246.81 278.8-64.36.05-.02 114.68-168.81 320.87-74.08z"/><path d="m1555.06 222.05-320.94 74.09-.04.01-114.66 168.81-278.8 64.37-.05.01L680.7 776.17.62 933.18v.25L680.81 776.4l.05-.01 159.86-246.83 278.8-64.37.05-.01 114.66-168.81 320.89-74.08z"/><path d="m1571.37 238.51-320.94 74.1-.04.01-114.66 168.82-278.8 64.37-.05.01-159.87 246.81L48.53 942.35h1.12l647.47-149.48.05-.02 159.87-246.81 278.8-64.36.04-.01 114.66-168.83 320.89-74.08z"/><path d="m1587.68 254.98-320.91 74.09-.05.01-114.67 168.83-278.81 64.37-.04.01L713.33 809.1 136.17 942.35h1.11l576.15-133.02.05-.01 159.87-246.81 278.8-64.37.05-.01 114.67-168.83 320.87-74.08z"/></g></svg>