<svg xmlns="http://www.w3.org/2000/svg" width="1581" height="1486" fill="none" viewBox="0 0 1581 1486"><mask id="a" width="1581" height="1486" x="0" y="0" maskUnits="userSpaceOnUse" style="mask-type:luminance"><path fill="#fff" fill-rule="evenodd" d="M396.944 0 1580.63 1028.96l-396.94 456.63L0 456.631z" clip-rule="evenodd"/></mask><g stroke="#707070" stroke-width=".25" mask="url(#a)"><path d="M-436.703 77.012 446.674 844.92l293.646-15.735 215.986 187.755 203.984-6.46 248.57 216.07"/><path d="m-432.986 54.123 883.394 767.923 293.646-15.735L960.04 994.065l203.97-6.477 248.59 216.092"/><path d="m-429.252 31.249 883.395 767.923L747.8 783.424l215.985 187.753 203.965-6.463 248.58 216.096"/><path d="m-425.518 8.375 883.395 767.923 293.64-15.763 215.987 187.754 203.976-6.449 248.59 216.09"/><path d="m-421.77-14.513 883.378 767.908 293.645-15.735L971.24 925.414l203.98-6.449 248.57 216.075"/><path d="M-418.053-37.402 465.342 730.52l293.646-15.734L974.973 902.54l203.957-6.464 248.59 216.094"/><path d="m-414.318-60.277 883.394 767.923 293.646-15.735 215.986 187.754 203.962-6.464 248.58 216.089"/><path d="m-361.691-40.648 834.503 725.422 293.627-15.751 215.987 187.755 203.984-6.463L1435 1066.41"/><path d="m-360.84-66.029 837.385 727.927 293.628-15.75L986.16 833.903l203.99-6.464 248.58 216.091"/><path d="M-317.377-54.368 480.262 639.01l293.645-15.735 215.987 187.754 203.966-6.478 248.59 216.09"/></g></svg>