<svg width="420" height="420" viewBox="0 0 420 420" fill="none" xmlns="http://www.w3.org/2000/svg">
  <defs>
    <radialGradient id="headFog" cx="0" cy="0" r="1" gradientUnits="userSpaceOnUse" gradientTransform="translate(261 136) rotate(126) scale(130 112)">
      <stop offset="0" stop-color="white" stop-opacity="0.30"/>
      <stop offset="1" stop-color="white" stop-opacity="0"/>
    </radialGradient>
    <linearGradient id="shaftFog" x1="226" y1="186" x2="70" y2="320" gradientUnits="userSpaceOnUse">
      <stop stop-color="white" stop-opacity="0.22"/>
      <stop offset="1" stop-color="white" stop-opacity="0.05"/>
    </linearGradient>
    <filter id="glow" x="-90%" y="-90%" width="280%" height="280%" color-interpolation-filters="sRGB">
      <feGaussianBlur stdDeviation="2.8" result="b1"/>
      <feGaussianBlur in="SourceGraphic" stdDeviation="6.2" result="b2"/>
      <feBlend in="b2" in2="b1" mode="screen" result="b"/>
      <feMerge>
        <feMergeNode in="b"/>
        <feMergeNode in="SourceGraphic"/>
      </feMerge>
    </filter>
    <style>
      .m { stroke: rgba(255,255,255,0.60); stroke-width: 0.96; }
      .n { fill: rgba(255,255,255,0.90); }
      .f { fill: rgba(255,255,255,1); filter: url(#glow); }
      .fs { fill: rgba(255,255,255,0.42); filter: url(#glow); }
    </style>
  </defs>

  <circle cx="257" cy="140" r="96" fill="url(#headFog)"/>
  <path d="M224 182L59 320L112 354L286 198L352 205L322 167L252 169Z" fill="url(#shaftFog)"/>

  <circle cx="258" cy="140" r="84" stroke="rgba(255,255,255,0.68)" stroke-width="1.35"/>
  <circle cx="288" cy="119" r="26.6" stroke="rgba(255,255,255,0.86)" stroke-width="1.45"/>
  <circle cx="288" cy="119" r="20.8" stroke="rgba(255,255,255,0.44)" stroke-width="1"/>

  <g class="m">
    <line x1="181" y1="156" x2="188" y2="114"/>
    <line x1="188" y1="114" x2="213" y2="82"/>
    <line x1="213" y1="82" x2="250" y2="62"/>
    <line x1="250" y1="62" x2="291" y2="58"/>
    <line x1="291" y1="58" x2="326" y2="74"/>
    <line x1="326" y1="74" x2="349" y2="103"/>
    <line x1="349" y1="103" x2="356" y2="141"/>
    <line x1="356" y1="141" x2="347" y2="179"/>
    <line x1="347" y1="179" x2="323" y2="206"/>
    <line x1="323" y1="206" x2="284" y2="221"/>
    <line x1="284" y1="221" x2="244" y2="218"/>
    <line x1="244" y1="218" x2="211" y2="199"/>
    <line x1="211" y1="199" x2="189" y2="168"/>
    <line x1="189" y1="168" x2="181" y2="156"/>

    <line x1="188" y1="114" x2="229" y2="120"/>
    <line x1="229" y1="120" x2="250" y2="62"/>
    <line x1="229" y1="120" x2="267" y2="112"/>
    <line x1="267" y1="112" x2="291" y2="58"/>
    <line x1="267" y1="112" x2="305" y2="105"/>
    <line x1="305" y1="105" x2="326" y2="74"/>
    <line x1="305" y1="105" x2="320" y2="137"/>
    <line x1="320" y1="137" x2="349" y2="103"/>
    <line x1="320" y1="137" x2="309" y2="170"/>
    <line x1="309" y1="170" x2="356" y2="141"/>
    <line x1="309" y1="170" x2="285" y2="191"/>
    <line x1="285" y1="191" x2="347" y2="179"/>
    <line x1="285" y1="191" x2="250" y2="194"/>
    <line x1="250" y1="194" x2="323" y2="206"/>
    <line x1="250" y1="194" x2="223" y2="173"/>
    <line x1="223" y1="173" x2="244" y2="218"/>
    <line x1="223" y1="173" x2="229" y2="120"/>
    <line x1="223" y1="173" x2="189" y2="168"/>

    <line x1="233" y1="142" x2="251" y2="157"/>
    <line x1="251" y1="157" x2="267" y2="133"/>
    <line x1="267" y1="133" x2="233" y2="142"/>
    <line x1="251" y1="157" x2="285" y2="191"/>
    <line x1="267" y1="133" x2="305" y2="105"/>

    <line x1="224" y1="182" x2="210" y2="196"/>
    <line x1="210" y1="196" x2="186" y2="214"/>
    <line x1="186" y1="214" x2="164" y2="230"/>
    <line x1="164" y1="230" x2="141" y2="247"/>
    <line x1="141" y1="247" x2="120" y2="265"/>
    <line x1="120" y1="265" x2="99" y2="283"/>
    <line x1="99" y1="283" x2="78" y2="301"/>
    <line x1="78" y1="301" x2="59" y2="320"/>

    <line x1="252" y1="169" x2="237" y2="186"/>
    <line x1="237" y1="186" x2="214" y2="204"/>
    <line x1="214" y1="204" x2="192" y2="221"/>
    <line x1="192" y1="221" x2="170" y2="239"/>
    <line x1="170" y1="239" x2="149" y2="257"/>
    <line x1="149" y1="257" x2="128" y2="275"/>
    <line x1="128" y1="275" x2="107" y2="292"/>
    <line x1="107" y1="292" x2="86" y2="310"/>
    <line x1="86" y1="310" x2="66" y2="327"/>

    <line x1="210" y1="196" x2="214" y2="204"/>
    <line x1="186" y1="214" x2="192" y2="221"/>
    <line x1="164" y1="230" x2="170" y2="239"/>
    <line x1="141" y1="247" x2="149" y2="257"/>
    <line x1="120" y1="265" x2="128" y2="275"/>
    <line x1="99" y1="283" x2="107" y2="292"/>
    <line x1="78" y1="301" x2="86" y2="310"/>
    <line x1="59" y1="320" x2="66" y2="327"/>

    <line x1="186" y1="214" x2="214" y2="204"/>
    <line x1="164" y1="230" x2="192" y2="221"/>
    <line x1="141" y1="247" x2="170" y2="239"/>
    <line x1="120" y1="265" x2="149" y2="257"/>
    <line x1="99" y1="283" x2="128" y2="275"/>
    <line x1="78" y1="301" x2="107" y2="292"/>
    <line x1="59" y1="320" x2="86" y2="310"/>

    <line x1="112" y1="354" x2="92" y2="333"/>
    <line x1="92" y1="333" x2="66" y2="327"/>
    <line x1="112" y1="354" x2="107" y2="292"/>
    <line x1="112" y1="354" x2="149" y2="257"/>
    <line x1="352" y1="205" x2="322" y2="167"/>
    <line x1="322" y1="167" x2="286" y2="198"/>
    <line x1="286" y1="198" x2="252" y2="169"/>
  </g>

  <g class="n">
    <circle cx="181" cy="156" r="2.3"/><circle cx="188" cy="114" r="2.2"/><circle cx="213" cy="82" r="2.2"/>
    <circle cx="250" cy="62" r="2.2"/><circle cx="291" cy="58" r="2.2"/><circle cx="326" cy="74" r="2.2"/>
    <circle cx="349" cy="103" r="2.2"/><circle cx="356" cy="141" r="2.2"/><circle cx="347" cy="179" r="2.2"/>
    <circle cx="323" cy="206" r="2.2"/><circle cx="284" cy="221" r="2.2"/><circle cx="244" cy="218" r="2.2"/>
    <circle cx="211" cy="199" r="2.2"/><circle cx="189" cy="168" r="2.2"/><circle cx="229" cy="120" r="2.1"/>
    <circle cx="267" cy="112" r="2.1"/><circle cx="305" cy="105" r="2.1"/><circle cx="320" cy="137" r="2.1"/>
    <circle cx="309" cy="170" r="2.1"/><circle cx="285" cy="191" r="2.1"/><circle cx="250" cy="194" r="2.1"/>
    <circle cx="223" cy="173" r="2.1"/><circle cx="233" cy="142" r="2.1"/><circle cx="251" cy="157" r="2.1"/>
    <circle cx="267" cy="133" r="2.1"/>

    <circle cx="224" cy="182" r="2.1"/><circle cx="210" cy="196" r="2.1"/><circle cx="186" cy="214" r="2.1"/>
    <circle cx="164" cy="230" r="2.1"/><circle cx="141" cy="247" r="2.1"/><circle cx="120" cy="265" r="2.1"/>
    <circle cx="99" cy="283" r="2.1"/><circle cx="78" cy="301" r="2.1"/><circle cx="59" cy="320" r="2.1"/>
    <circle cx="252" cy="169" r="2.1"/><circle cx="237" cy="186" r="2.1"/><circle cx="214" cy="204" r="2.1"/>
    <circle cx="192" cy="221" r="2.1"/><circle cx="170" cy="239" r="2.1"/><circle cx="149" cy="257" r="2.1"/>
    <circle cx="128" cy="275" r="2.1"/><circle cx="107" cy="292" r="2.1"/><circle cx="86" cy="310" r="2.1"/>
    <circle cx="66" cy="327" r="2.1"/><circle cx="112" cy="354" r="2.1"/><circle cx="92" cy="333" r="2.1"/>
    <circle cx="352" cy="205" r="2.1"/><circle cx="322" cy="167" r="2.1"/><circle cx="286" cy="198" r="2.1"/>
  </g>

  <g class="f">
    <circle cx="250" cy="62" r="6"/><circle cx="289" cy="58" r="5.4"/><circle cx="305" cy="105" r="4.8"/>
    <circle cx="356" cy="141" r="4.2"/><circle cx="323" cy="206" r="4.6"/><circle cx="250" cy="194" r="5.2"/>
    <circle cx="223" cy="173" r="4.7"/><circle cx="214" cy="204" r="4.2"/><circle cx="149" cy="257" r="4.4"/>
    <circle cx="107" cy="292" r="4"/><circle cx="86" cy="310" r="4.4"/><circle cx="66" cy="327" r="5"/>
    <circle cx="112" cy="354" r="4.8"/>
  </g>
  <g class="fs">
    <circle cx="250" cy="62" r="10"/><circle cx="289" cy="58" r="9.2"/><circle cx="305" cy="105" r="8.2"/>
    <circle cx="356" cy="141" r="7.2"/><circle cx="323" cy="206" r="7.8"/><circle cx="250" cy="194" r="8.4"/>
    <circle cx="223" cy="173" r="7.6"/><circle cx="214" cy="204" r="7.2"/><circle cx="149" cy="257" r="7.4"/>
    <circle cx="107" cy="292" r="6.6"/><circle cx="86" cy="310" r="7.2"/><circle cx="66" cy="327" r="8"/>
    <circle cx="112" cy="354" r="7.8"/>
  </g>
</svg>
