<svg xmlns="http://www.w3.org/2000/svg" fill="none" viewBox="0 0 430 429"><path stroke="#747474" stroke-opacity=".45" d="M425.245 210.544c2.025 115.998-90.592 211.682-206.869 213.711C102.1 426.285 6.198 333.892 4.174 217.894S94.767 6.214 211.044 4.184c116.276-2.03 212.176 90.362 214.201 206.36Z"/><path stroke="#747474" stroke-opacity=".45" d="M415.489 201.386c1.936 110.913-86.407 202.395-197.32 204.332S15.774 319.31 13.839 208.397C11.901 97.485 100.245 6.003 211.158 4.067s202.394 86.407 204.33 197.319Z"/><path stroke="#747474" stroke-opacity=".45" d="M214.84 3.857c105.21 0 190.5 85.29 190.5 190.5s-85.29 190.5-190.5 190.5-190.5-85.29-190.5-190.5 85.29-190.5 190.5-190.5Z"/></svg>