<svg xmlns="http://www.w3.org/2000/svg" width="1665" height="943" fill="none" viewBox="0 0 1665 943"><mask id="a" width="1665" height="944" x="0" y="-1" maskUnits="userSpaceOnUse" style="mask-type:luminance"><path fill="#fff" fill-rule="evenodd" d="M0 352.811 1528.2-.001l136.11 589.535L136.105 942.346z" clip-rule="evenodd"/></mask><g stroke="#707070" stroke-width=".25" mask="url(#a)"><path d="M-427.699 1072.51 712.788 809.211l159.87-246.813 278.852-64.378 114.67-168.829 320.92-74.089"/><path d="M-444.029 1056.05 696.48 792.745l159.871-246.813 278.849-64.377 114.65-168.824 320.94-74.094"/><path d="m-460.342 1039.58 1140.51-263.302 159.866-246.83 278.846-64.378 114.66-168.806 320.94-74.095"/><path d="M-476.652 1023.12 663.857 759.812l159.844-246.825 278.849-64.378 114.68-168.812 320.94-74.094"/><path d="M-492.969 1006.63 647.518 743.333 807.389 496.52l278.851-64.378 114.68-168.811 320.91-74.089"/><path d="m-509.297 990.174 1140.51-263.307 159.871-246.813 278.846-64.377 114.66-168.807 320.94-74.094"/><path d="M-525.607 973.707 614.902 710.4l159.871-246.813 278.847-64.377 114.66-168.807 320.94-74.094"/><path d="M-478.797 942.669 598.591 693.935l159.847-246.808 278.852-64.378 114.67-168.828 320.94-74.095"/><path d="M-498.828 927.06 582.28 677.467l159.848-246.808 278.852-64.377 114.67-168.828 320.94-74.095"/><path d="M-463.848 898.751 565.946 661.005l159.871-246.814 278.853-64.377 114.65-168.824 320.94-74.094"/></g></svg>