<svg xmlns="http://www.w3.org/2000/svg" width="1472" height="1591" fill="none" viewBox="0 0 1472 1591"><mask id="a" width="1472" height="1591" x="0" y="0" maskUnits="userSpaceOnUse" style="mask-type:luminance"><path fill="#fff" fill-rule="evenodd" d="M463.489 0 1471.64 1201.46l-463.49 388.92L0 388.914z" clip-rule="evenodd"/></mask><g stroke="#707070" stroke-width=".5" mask="url(#a)"><path d="m-371.939-54.347 752.373 896.644 292.492 30.395 183.956 219.228 202.488 25.53 211.71 252.3"/><path d="M-364.688-76.374 387.701 820.29l292.492 30.395 183.956 219.226 202.471 25.51 211.72 252.32"/><path d="m-357.424-98.382 752.389 896.663 292.505 30.383 183.956 219.226 202.464 25.53 211.72 252.32"/><path d="m-350.154-120.391 752.389 896.662 292.49 30.366 183.957 219.233 202.478 25.54 211.72 252.32"/><path d="m-342.871-142.411 752.374 896.645 292.491 30.395 183.957 219.231 202.479 25.54 211.7 252.3"/><path d="m-335.621-164.437 752.389 896.662L709.26 762.62l183.955 219.23 202.465 25.52 211.72 252.32"/><path d="m-328.355-186.445 752.388 896.662 292.492 30.395 183.956 219.23 202.459 25.523 211.72 252.315"/><path d="m-279.447-158.826 710.748 847.037 292.476 30.376 183.956 219.231 202.487 25.527 211.72 252.325"/><path d="m-274.633-183.759 713.202 849.961 292.477 30.377L915.002 915.81l202.488 25.526 211.72 252.324"/><path d="m-233.531-165.442 679.35 809.618 292.492 30.395 183.956 219.23 202.473 25.511 211.72 252.318"/></g></svg>