<svg xmlns="http://www.w3.org/2000/svg" width="1336.56" viewBox="0 0 1336.56 1257.16"><g fill="#707070"><path d="m1066.72 982.67-.04-.04-202.47-25.51-183.93-219.2-.03-.03-292.49-30.4L0 245.38v.38l387.6 461.93.04.04 292.49 30.39 183.92 219.2.03.03 202.48 25.52 211.69 252.28.19-.16z"/><path d="m1073.98 960.66-.03-.04-202.46-25.52-183.92-219.19-.04-.04-292.5-30.39L0 214.71v.38l394.87 470.59.03.04 292.51 30.38 183.92 219.2.03.03 202.46 25.53 211.69 252.28.2-.16z"/><path d="m1081.25 938.65-.03-.04-202.47-25.54-183.93-219.19-.03-.04-292.49-30.36L0 184.04v.39l402.14 479.25.03.04 292.49 30.36 183.92 219.19.04.04 202.47 25.54 211.69 252.28.19-.16z"/><path d="m1088.52 916.64-.03-.04-202.48-25.53-183.92-219.2-.04-.03-292.49-30.4L0 153.34v.39l409.4 487.91.04.04 292.49 30.39 183.92 219.19.03.04 202.48 25.54 211.67 252.27.19-.16z"/><path d="m1103.03 872.61-.03-.04-202.46-25.52-183.92-219.19-.03-.04-292.49-30.4L0 92.01v.38l423.94 505.23.03.04 292.49 30.39 183.92 219.19.03.04 202.46 25.52 211.69 252.29.19-.16z"/><path d="m1110.32 850.59-.03-.04-202.49-25.52-183.93-219.2-.03-.03-292.48-30.38L0 61.34v.39l431.2 513.89.04.03 292.48 30.38 183.92 219.19.03.04 202.49 25.53 211.69 252.28.19-.16z"/><path d="m1117.58 828.58-.03-.04-202.49-25.53-183.92-219.19-.03-.04-292.48-30.37L0 30.67v.39l438.47 522.55.03.04 292.48 30.37L914.9 803.21l.04.04 202.48 25.53 211.69 252.28.2-.16z"/><path d="m1124.84 806.56-.04-.04-202.47-25.51-183.92-219.19-.04-.04-292.49-30.4L0 0v.39l445.72 531.19.04.04 292.49 30.39 183.92 219.2.03.03 202.48 25.51 211.69 252.29.19-.16zm-65.38 198.13-.03-.03-202.48-25.53-183.93-219.19-.03-.04-292.49-30.4L0 276.04v.39L380.34 729.7l.03.04 292.49 30.39 183.93 219.2.03.03 202.48 25.53 211.68 252.27.19-.16z"/><path d="m1095.77 894.61-.03-.03-202.46-25.53-183.93-219.19-.03-.04-292.49-30.39L0 122.67v.39l416.67 496.57.03.04 292.49 30.39 183.93 219.19.03.04 202.46 25.52 211.69 252.28.19-.16z"/></g></svg>