<svg xmlns="http://www.w3.org/2000/svg" data-name="Layer 2" viewBox="0 0 840.38 536.57"><path d="M840.16 113.64c.54-19.07 1.55-54.57-17.96-76.17-14.71-15.99-23.08-20.86-34.67-27.6l-.97-.57C774.35 2.2 745.45.08 744.19 0H100.75C78.87 0 59.66 11.63 48.96 29.03a61.24 61.24 0 0 0-19.98 19.98C11.62 59.71 0 78.89 0 100.75v137.07c0 32.92 31.32 52.96 60.62 60.74 2.81.75 5.71 1.44 8.51 2.1 25.05 5.97 50.95 12.15 51.37 65.96.46 59.32.02 107.18 0 109.2 0 33.5 27.25 60.75 60.75 60.75h557.33c16.23 0 31.48-6.32 42.96-17.79 3.4-3.4 6.33-7.15 8.79-11.15 4.02-2.47 7.79-5.43 11.21-8.85 3.39-3.39 6.29-7.14 8.75-11.12 4.04-2.48 7.81-5.44 11.25-8.88 11.47-11.47 17.79-26.73 17.79-42.96l.3-185.77c0-18.49.11-30.7.23-44.84.1-11.54.21-24.62.3-43.92.1-22.5-.06-28.9-.16-32.73-.09-3.56-.12-4.9.16-14.93Zm-59.32 404.43c-11.29 11.29-26.29 17.5-42.25 17.5H181.26c-32.95 0-59.75-26.81-59.75-59.75 0-.49.46-49.63 0-109.21-.42-54.59-26.71-60.86-52.14-66.93-2.8-.67-5.69-1.36-8.48-2.1-28.95-7.68-59.88-27.42-59.88-59.77V100.75c0-20.81 10.7-39.17 26.88-49.87a60.3 60.3 0 0 0-7.88 29.87v137.07c0 32.91 31.32 52.95 60.62 60.73 2.81.75 5.71 1.44 8.51 2.1 25.05 5.97 50.95 12.15 51.37 65.96.46 59.32.02 107.18 0 109.2 0 33.5 27.25 60.75 60.75 60.75h557.33c10.62 0 20.81-2.72 29.81-7.81-2.19 3.31-4.69 6.44-7.56 9.3Zm20-20c-11.29 11.29-26.29 17.5-42.25 17.5H201.26c-32.95 0-59.75-26.81-59.75-59.75 0-.49.46-49.63 0-109.21-.42-54.59-26.71-60.86-52.14-66.93-2.8-.67-5.69-1.36-8.48-2.1-28.95-7.68-59.88-27.42-59.88-59.77V80.75c0-20.8 10.7-39.14 26.86-49.84-5 8.82-7.86 19-7.86 29.84v137.07c0 32.91 31.32 52.95 60.62 60.73 2.81.75 5.71 1.44 8.51 2.1 25.05 5.97 50.95 12.15 51.37 65.96.46 59.32.02 107.18 0 109.2 0 33.5 27.25 60.75 60.75 60.75h557.33c10.62 0 20.81-2.72 29.81-7.81-2.19 3.31-4.69 6.44-7.56 9.31Zm38.32-384.46c-.29 10.06-.25 11.4-.16 14.98.1 3.82.26 10.22.16 32.7-.08 19.29-.2 32.37-.3 43.91-.12 14.14-.23 26.35-.23 44.85l-.3 185.77c0 15.96-6.21 30.96-17.5 42.25s-26.29 17.5-42.25 17.5H221.26c-32.95 0-59.75-26.81-59.75-59.75 0-.49.46-49.63 0-109.21-.42-54.59-26.71-60.86-52.14-66.93-2.8-.67-5.69-1.36-8.48-2.1-28.95-7.68-59.88-27.42-59.88-59.77V60.75C41.01 27.8 67.81 1 100.76 1h643.4c.3.02 29.9 2.18 41.9 9.17l.97.57c11.51 6.7 19.83 11.53 34.43 27.4 19.25 21.31 18.24 56.54 17.7 75.47" data-name="Layer 1" style="fill:#747474"/></svg>