<svg xmlns="http://www.w3.org/2000/svg" viewBox="0 0 1980.81 841.34">
<path
style="stroke-opacity:1;stroke-linejoin:miter;stroke-linecap:butt;stroke-width:1px;stroke:#f6b830;fill:none;"
d="m 215.35,-7.75
c 0,0 -1.04,4.08 -3.53,7.11
C 166.28,54.73 141.79,8.31 122.63,46.04 103.47,83.76 85.39,26.21 54.78,65.19 35.97,90.86 23.55,86.88 -8.26,73.42 11.25,150.63 33.47,78.03 95.55,126.97
c 80.16,63.19 54.57,-43.88 128.84,63.19 -65.08,107.25 -92.8,21 -149.95,69.2 -54.92,46.33 -88.19,-64.96 -103.72,11.37 59.95,49.4 65.4,-11.03 123.52,51.43 53.97,57.99 107.72,-22.81 124.47,78.67 -94.27,-39.13 -88.88,42.39 -150.42,31.06 -25.52,-4.7 -59.25,9.76 -69.47,28.87"/>
</svg>
