<svg xmlns="http://www.w3.org/2000/svg" width="723.266" height="321.692" viewBox="0 0 723.266 321.692"><g id="Group_3485" transform="translate(21561.266 -1313.029)"><path id="Path_1460" fill="#ababab" d="M115.286 151.99a2.83 2.83 0 0 1 4 0 2.828 2.828 0 1 1-4 0" data-name="Path 1460" transform="translate(-21141.232 1299.696)"/><path id="Path_1461" fill="none" stroke="#6b6b6b" stroke-miterlimit="10" stroke-width=".75" d="M183.466 111.768a2.828 2.828 0 1 1 0 4 2.844 2.844 0 0 1 0-4Z" data-name="Path 1461" transform="translate(-21318.498 1275.569)"/><path id="Path_1462" fill="#6b6b6b" d="M193.2 95.418a2.828 2.828 0 1 1 0 4 2.844 2.844 0 0 1 0-4" data-name="Path 1462" transform="translate(-21343.797 1265.759)"/><path id="Path_1463" fill="#6b6b6b" d="M202.942 111.768a2.828 2.828 0 1 1 0 4 2.844 2.844 0 0 1 0-4" data-name="Path 1463" transform="translate(-21369.125 1275.569)"/><path id="Path_1464" fill="none" stroke="#6b6b6b" stroke-miterlimit="10" stroke-width=".75" d="M183.462 119.948a2.828 2.828 0 1 1 0 4 2.844 2.844 0 0 1 0-4Z" data-name="Path 1464" transform="translate(-21318.494 1280.476)"/><path id="Path_1465" fill="#6b6b6b" d="M193.2 103.588a2.828 2.828 0 1 1 0 4 2.844 2.844 0 0 1 0-4" data-name="Path 1465" transform="translate(-21343.797 1270.661)"/><path id="Path_1466" fill="none" stroke="#6b6b6b" stroke-miterlimit="10" stroke-width="1" d="M202.938 119.948a2.828 2.828 0 1 1 0 4 2.844 2.844 0 0 1 0-4Z" data-name="Path 1466" transform="translate(-21369.121 1280.476)"/><path id="Path_1467" fill="#6b6b6b" d="M183.468 128.13a2.828 2.828 0 1 1 0 4 2.83 2.83 0 0 1 0-4" data-name="Path 1467" transform="translate(-21318.5 1285.382)"/><path id="Path_1468" fill="#6b6b6b" d="M193.2 111.768a2.828 2.828 0 1 1 0 4 2.844 2.844 0 0 1 0-4" data-name="Path 1468" transform="translate(-21343.795 1275.569)"/><path id="Path_1469" fill="none" stroke="#6b6b6b" stroke-miterlimit="10" stroke-width=".75" d="M183.468 136.3a2.828 2.828 0 1 1 0 4 2.844 2.844 0 0 1 0-4Z" data-name="Path 1469" transform="translate(-21318.5 1290.285)"/><path id="Path_1470" fill="#6b6b6b" d="M193.192 119.948a2.828 2.828 0 1 1 0 4 2.844 2.844 0 0 1 0-4" data-name="Path 1470" transform="translate(-21343.791 1280.476)"/><path id="Path_1471" fill="#6b6b6b" d="M115.288 168.338a2.828 2.828 0 1 1 0 4 2.844 2.844 0 0 1 0-4" data-name="Path 1471" transform="translate(-21141.234 1309.508)"/><path id="Path_1472" fill="#6b6b6b" d="M115.282 160.158a2.828 2.828 0 1 1 0 4 2.844 2.844 0 0 1 0-4" data-name="Path 1472" transform="translate(-21141.229 1304.6)"/><path id="Path_1473" fill="#ababab" d="M115.292 191.7a2.828 2.828 0 1 1 0 4 2.844 2.844 0 0 1 0-4" data-name="Path 1473" transform="translate(-21141.238 1323.523)"/><path id="Path_1474" fill="#6b6b6b" d="M115.288 208.058a2.828 2.828 0 1 1 0 4 2.844 2.844 0 0 1 0-4" data-name="Path 1474" transform="translate(-21141.234 1333.338)"/><path id="Path_1475" fill="none" stroke="#6b6b6b" stroke-miterlimit="10" stroke-width="1" d="M107.256 199.878a2.828 2.828 0 1 1 0 4 2.844 2.844 0 0 1 0-4Z" data-name="Path 1475" transform="translate(-21120.355 1328.43)"/><path id="Path_1476" fill="none" stroke="#6b6b6b" stroke-miterlimit="10" stroke-width="1" d="M115.288 231.718a2.828 2.828 0 1 1 0 4 2.844 2.844 0 0 1 0-4Z" data-name="Path 1476" transform="translate(-21141.234 1347.533)"/><path id="Path_1477" fill="none" stroke="#6b6b6b" stroke-miterlimit="10" stroke-width=".75" d="M125.028 164.248a2.828 2.828 0 1 1 0 4 2.844 2.844 0 0 1 0-4Z" data-name="Path 1477" transform="translate(-21166.559 1307.054)"/><path id="Path_1478" fill="#6b6b6b" d="M134.762 144.478a2.828 2.828 0 1 1 0 4 2.844 2.844 0 0 1 0-4" data-name="Path 1478" transform="translate(-21191.875 1295.193)"/><path id="Path_1479" fill="#6b6b6b" d="M134.768 126.358a2.828 2.828 0 1 1 0 4 2.844 2.844 0 0 1 0-4" data-name="Path 1479" transform="translate(-21191.883 1284.322)"/><path id="Path_1480" fill="none" stroke="#6b6b6b" stroke-miterlimit="10" stroke-width=".75" d="M144.506 144.478a2.828 2.828 0 1 1 0 4 2.844 2.844 0 0 1 0-4Z" data-name="Path 1480" transform="translate(-21217.203 1295.193)"/><path id="Path_1481" fill="#878787" d="M154.242 144.478a2.828 2.828 0 1 1 0 4 2.844 2.844 0 0 1 0-4" data-name="Path 1481" transform="translate(-21242.523 1295.193)"/><path id="Path_1482" fill="none" stroke="#6b6b6b" stroke-miterlimit="10" stroke-width=".75" d="M183.466 144.478a2.828 2.828 0 1 1 0 4 2.844 2.844 0 0 1 0-4Z" data-name="Path 1482" transform="translate(-21318.498 1295.193)"/><path id="Path_1483" fill="#bfbfbf" d="M193.2 128.13a2.828 2.828 0 1 1 0 4 2.83 2.83 0 0 1 0-4" data-name="Path 1483" transform="translate(-21343.797 1285.382)"/><path id="Path_1484" fill="#bfbfbf" d="M202.942 144.478a2.828 2.828 0 1 1 0 4 2.844 2.844 0 0 1 0-4" data-name="Path 1484" transform="translate(-21369.125 1295.193)"/><path id="Path_1485" fill="none" stroke="#6b6b6b" stroke-miterlimit="10" stroke-width="1" d="M115.288 143.808a2.828 2.828 0 1 1 0 4 2.844 2.844 0 0 1 0-4Z" data-name="Path 1485" transform="translate(-21141.234 1294.791)"/><path id="Path_1486" fill="#6b6b6b" d="M144.508 121.588a2.828 2.828 0 1 1 0 4 2.844 2.844 0 0 1 0-4" data-name="Path 1486" transform="translate(-21217.205 1281.46)"/><path id="Path_1487" fill="#6b6b6b" d="M134.762 111.768a2.828 2.828 0 1 1 0 4 2.844 2.844 0 0 1 0-4" data-name="Path 1487" transform="translate(-21191.875 1275.569)"/><path id="Path_1488" fill="none" stroke="#6b6b6b" stroke-miterlimit="10" stroke-width=".75" d="M144.506 111.768a2.828 2.828 0 1 1 0 4 2.844 2.844 0 0 1 0-4Z" data-name="Path 1488" transform="translate(-21217.203 1275.569)"/><path id="Path_1489" fill="#6b6b6b" d="M17.836 137.95a2.83 2.83 0 0 1 4 0 2.828 2.828 0 1 1-4 0" data-name="Path 1489" transform="translate(-20887.867 1291.273)"/><path id="Path_1490" fill="#6b6b6b" d="M.826 111.768a2.844 2.844 0 0 1 4 0 2.86 2.86 0 0 1 0 4 2.86 2.86 0 0 1-4 0 2.86 2.86 0 0 1 0-4" data-name="Path 1490" transform="translate(-20843.643 1275.569)"/><path id="Path_1491" fill="none" stroke="#6b6b6b" stroke-miterlimit="10" stroke-width="1" d="M9.232 111.768a2.828 2.828 0 1 1 0 4 2.844 2.844 0 0 1 0-4Z" data-name="Path 1491" transform="translate(-20865.504 1275.569)"/><path id="Path_1492" fill="none" stroke="#6b6b6b" stroke-miterlimit="10" stroke-width=".75" d="M27.576 111.768a2.828 2.828 0 1 1 0 4 2.844 2.844 0 0 1 0-4Z" data-name="Path 1492" transform="translate(-20913.191 1275.569)"/><path id="Path_1493" fill="none" stroke="#6b6b6b" stroke-miterlimit="10" stroke-width="1" d="M37.306 95.368a2.828 2.828 0 1 1 0 4 2.844 2.844 0 0 1 0-4Z" data-name="Path 1493" transform="translate(-20938.488 1265.729)"/><path id="Path_1494" fill="none" stroke="#adadad" stroke-miterlimit="10" stroke-width=".75" d="M47.048 111.768a2.828 2.828 0 1 1 0 4 2.844 2.844 0 0 1 0-4Z" data-name="Path 1494" transform="translate(-20963.814 1275.569)"/><path id="Path_1495" fill="#6b6b6b" d="M56.786 111.768a2.828 2.828 0 1 1 0 4 2.844 2.844 0 0 1 0-4" data-name="Path 1495" transform="translate(-20989.135 1275.569)"/><path id="Path_1496" fill="none" stroke="#6b6b6b" stroke-miterlimit="10" stroke-width="1" d="M66.532 82.548a2.828 2.828 0 1 1 0 4 2.844 2.844 0 0 1 0-4Z" data-name="Path 1496" transform="translate(-21014.465 1258.038)"/><path id="Path_1497" fill="none" stroke="#c4c4c4" stroke-miterlimit="10" stroke-width=".75" d="M76.262 111.768a2.828 2.828 0 1 1 0 4 2.844 2.844 0 0 1 0-4Z" data-name="Path 1497" transform="translate(-21039.779 1275.569)"/><path id="Path_1498" fill="none" stroke="#6b6b6b" stroke-miterlimit="10" stroke-width=".75" d="M86.006 111.768a2.828 2.828 0 1 1 0 4 2.844 2.844 0 0 1 0-4Z" data-name="Path 1498" transform="translate(-21065.105 1275.569)"/><path id="Path_1499" fill="#6b6b6b" d="M95.744 95.418a2.828 2.828 0 1 1 0 4 2.844 2.844 0 0 1 0-4" data-name="Path 1499" transform="translate(-21090.428 1265.759)"/><path id="Path_1500" fill="#6b6b6b" d="M105.486 111.768a2.828 2.828 0 1 1 0 4 2.844 2.844 0 0 1 0-4" data-name="Path 1500" transform="translate(-21115.754 1275.569)"/><path id="Path_1501" fill="#6b6b6b" d="M17.832 146.128a2.828 2.828 0 1 1 0 4 2.844 2.844 0 0 1 0-4" data-name="Path 1501" transform="translate(-20887.863 1296.183)"/><path id="Path_1502" fill="#6b6b6b" d="M27.572 119.948a2.828 2.828 0 1 1 0 4 2.844 2.844 0 0 1 0-4" data-name="Path 1502" transform="translate(-20913.188 1280.476)"/><path id="Path_1503" fill="#6b6b6b" d="M37.308 103.538a2.828 2.828 0 1 1 0 4 2.844 2.844 0 0 1 0-4" data-name="Path 1503" transform="translate(-20938.49 1270.631)"/><path id="Path_1504" fill="none" stroke="#6b6b6b" stroke-miterlimit="10" stroke-width=".75" d="M47.044 119.948a2.828 2.828 0 1 1 0 4 2.844 2.844 0 0 1 0-4Z" data-name="Path 1504" transform="translate(-20963.811 1280.476)"/><path id="Path_1505" fill="#6b6b6b" d="M66.526 90.73a2.83 2.83 0 0 1 4 0 2.86 2.86 0 0 1 0 4 2.83 2.83 0 0 1-4 0 2.86 2.86 0 0 1 0-4" data-name="Path 1505" transform="translate(-21014.459 1262.943)"/><path id="Path_1506" fill="none" stroke="#c4c4c4" stroke-miterlimit="10" stroke-width=".75" d="M76.258 119.948a2.828 2.828 0 1 1 0 4 2.844 2.844 0 0 1 0-4Z" data-name="Path 1506" transform="translate(-21039.775 1280.476)"/><path id="Path_1507" fill="none" stroke="#6b6b6b" stroke-miterlimit="10" stroke-width=".75" d="M86 119.948a2.828 2.828 0 1 1 0 4 2.844 2.844 0 0 1 0-4Z" data-name="Path 1507" transform="translate(-21065.102 1280.476)"/><path id="Path_1508" fill="#6b6b6b" d="M95.744 103.588a2.828 2.828 0 1 1 0 4 2.844 2.844 0 0 1 0-4" data-name="Path 1508" transform="translate(-21090.428 1270.661)"/><path id="Path_1509" fill="#6b6b6b" d="M17.838 154.308a2.828 2.828 0 1 1 0 4 2.844 2.844 0 0 1 0-4" data-name="Path 1509" transform="translate(-20887.869 1301.091)"/><path id="Path_1510" fill="none" stroke="#6b6b6b" stroke-miterlimit="10" stroke-width=".75" d="M27.578 128.13a2.828 2.828 0 1 1 0 4 2.83 2.83 0 0 1 0-4Z" data-name="Path 1510" transform="translate(-20913.193 1285.382)"/><path id="Path_1511" fill="#bababa" d="M37.308 111.718a2.828 2.828 0 1 1 0 4 2.844 2.844 0 0 1 0-4" data-name="Path 1511" transform="translate(-20938.49 1275.539)"/><path id="Path_1512" fill="none" stroke="#6b6b6b" stroke-miterlimit="10" stroke-width=".75" d="M47.05 128.13a2.828 2.828 0 1 1 0 4 2.83 2.83 0 0 1 0-4Z" data-name="Path 1512" transform="translate(-20963.816 1285.382)"/><path id="Path_1513" fill="#6b6b6b" d="M66.528 98.908a2.828 2.828 0 1 1 0 4 2.844 2.844 0 0 1 0-4" data-name="Path 1513" transform="translate(-21014.461 1267.853)"/><path id="Path_1514" fill="none" stroke="#6b6b6b" stroke-miterlimit="10" stroke-width=".75" d="M76.264 128.13a2.828 2.828 0 0 1 4 4 2.828 2.828 0 0 1-4-4Z" data-name="Path 1514" transform="translate(-21039.781 1285.382)"/><path id="Path_1515" fill="#6b6b6b" d="M86.008 128.13a2.828 2.828 0 0 1 4 4 2.828 2.828 0 0 1-4-4" data-name="Path 1515" transform="translate(-21065.107 1285.382)"/><path id="Path_1516" fill="#6b6b6b" d="M17.838 162.478a2.828 2.828 0 1 1 0 4 2.844 2.844 0 0 1 0-4" data-name="Path 1516" transform="translate(-20887.869 1305.992)"/><path id="Path_1517" fill="#6b6b6b" d="M27.578 136.3a2.828 2.828 0 1 1 0 4 2.844 2.844 0 0 1 0-4" data-name="Path 1517" transform="translate(-20913.193 1290.285)"/><path id="Path_1518" fill="#6b6b6b" d="M37.312 119.9a2.828 2.828 0 1 1 0 4 2.844 2.844 0 0 1 0-4" data-name="Path 1518" transform="translate(-20938.494 1280.446)"/><path id="Path_1519" fill="#6b6b6b" d="M66.528 107.088a2.828 2.828 0 1 1 0 4 2.844 2.844 0 0 1 0-4" data-name="Path 1519" transform="translate(-21014.461 1272.761)"/><path id="Path_1520" fill="none" stroke="#6b6b6b" stroke-miterlimit="10" stroke-width=".75" d="M76.264 136.3a2.828 2.828 0 1 1 0 4 2.844 2.844 0 0 1 0-4Z" data-name="Path 1520" transform="translate(-21039.781 1290.285)"/><path id="Path_1521" fill="none" stroke="#6b6b6b" stroke-miterlimit="10" stroke-width=".75" d="M86.008 136.3a2.828 2.828 0 1 1 0 4 2.844 2.844 0 0 1 0-4Z" data-name="Path 1521" transform="translate(-21065.107 1290.285)"/><path id="Path_1522" fill="#6b6b6b" d="M95.738 119.948a2.828 2.828 0 1 1 0 4 2.844 2.844 0 0 1 0-4" data-name="Path 1522" transform="translate(-21090.422 1280.476)"/><path id="Path_1523" fill="#6b6b6b" d="M105.488 136.3a2.828 2.828 0 1 1 0 4 2.844 2.844 0 0 1 0-4" data-name="Path 1523" transform="translate(-21115.756 1290.285)"/><path id="Path_1524" fill="none" stroke="#6b6b6b" stroke-miterlimit="10" stroke-width="1" d="M17.836 170.658a2.828 2.828 0 1 1 0 4 2.844 2.844 0 0 1 0-4Z" data-name="Path 1524" transform="translate(-20887.867 1310.9)"/><path id="Path_1525" fill="none" stroke="#6b6b6b" stroke-miterlimit="10" stroke-width="1" d="M9.234 136.3a2.828 2.828 0 1 1 0 4 2.844 2.844 0 0 1 0-4Z" data-name="Path 1525" transform="translate(-20865.506 1290.285)"/><path id="Path_1526" fill="#6b6b6b" d="M9.232 144.478a2.828 2.828 0 1 1 0 4 2.844 2.844 0 0 1 0-4" data-name="Path 1526" transform="translate(-20865.504 1295.193)"/><path id="Path_1527" fill="none" stroke="#6b6b6b" stroke-miterlimit="10" stroke-width="1" d="M66.532 115.258a2.828 2.828 0 1 1 0 4 2.844 2.844 0 0 1 0-4Z" data-name="Path 1527" transform="translate(-21014.465 1277.662)"/><path id="Path_1528" fill="none" stroke="#6b6b6b" stroke-miterlimit="10" stroke-width=".75" d="M76.262 144.478a2.828 2.828 0 1 1 0 4 2.844 2.844 0 0 1 0-4Z" data-name="Path 1528" transform="translate(-21039.779 1295.193)"/><path id="Path_1529" fill="none" stroke="#6b6b6b" stroke-miterlimit="10" stroke-width=".75" d="M86.006 144.478a2.828 2.828 0 1 1 0 4 2.844 2.844 0 0 1 0-4Z" data-name="Path 1529" transform="translate(-21065.105 1295.193)"/><path id="Path_1530" fill="#bfbfbf" d="M95.744 128.13a2.828 2.828 0 1 1 0 4 2.83 2.83 0 0 1 0-4" data-name="Path 1530" transform="translate(-21090.428 1285.382)"/><path id="Path_1531" fill="#bfbfbf" d="M105.486 144.478a2.828 2.828 0 1 1 0 4 2.844 2.844 0 0 1 0-4" data-name="Path 1531" transform="translate(-21115.754 1295.193)"/><path id="Path_1532" fill="#6b6b6b" d="M222.51 128.13a2.828 2.828 0 0 1 4 4 2.86 2.86 0 0 1-4 0 2.83 2.83 0 0 1 0-4" data-name="Path 1532" transform="translate(-21420.004 1285.382)"/><path id="Path_1533" fill="none" stroke="#6b6b6b" stroke-miterlimit="10" stroke-width="1" d="M222.51 136.3a2.828 2.828 0 1 1 0 4 2.844 2.844 0 0 1 0-4Z" data-name="Path 1533" transform="translate(-21420.004 1290.285)"/><path id="Path_1534" fill="none" stroke="#6b6b6b" stroke-miterlimit="10" stroke-width="1" d="M222.51 158.538a2.828 2.828 0 1 1 0 4 2.844 2.844 0 0 1 0-4Z" data-name="Path 1534" transform="translate(-21420.004 1303.628)"/><path id="Path_1535" fill="#6b6b6b" d="M232.248 136.3a2.828 2.828 0 1 1 0 4 2.844 2.844 0 0 1 0-4" data-name="Path 1535" transform="translate(-21445.326 1290.285)"/><path id="Path_1536" fill="none" stroke="#6b6b6b" stroke-miterlimit="10" stroke-width="1" d="M241.984 136.3a2.828 2.828 0 1 1 0 4 2.844 2.844 0 0 1 0-4Z" data-name="Path 1536" transform="translate(-21470.645 1290.285)"/><path id="Path_1537" fill="none" stroke="#6b6b6b" stroke-miterlimit="10" stroke-width="1" d="M212.7 119.948a2.828 2.828 0 1 1 0 4 2.844 2.844 0 0 1 0-4Z" data-name="Path 1537" transform="translate(-21394.516 1280.476)"/><path id="Path_1538" fill="#6b6b6b" d="M212.708 128.13a2.828 2.828 0 1 1 0 4 2.83 2.83 0 0 1 0-4" data-name="Path 1538" transform="translate(-21394.521 1285.382)"/><path id="Path_1539" fill="#ababab" d="M348.482 146.128a2.828 2.828 0 1 1 0 4 2.844 2.844 0 0 1 0-4" data-name="Path 1539" transform="translate(-21747.537 1296.183)"/><path id="Path_1540" fill="none" stroke="#6b6b6b" stroke-miterlimit="10" stroke-width=".75" d="M416.656 111.768a2.828 2.828 0 1 1 0 4 2.844 2.844 0 0 1 0-4Z" data-name="Path 1540" transform="translate(-21924.781 1275.569)"/><path id="Path_1541" fill="none" stroke="#6b6b6b" stroke-miterlimit="10" stroke-width=".75" d="M433.152 119.948a2.828 2.828 0 1 1 0 4 2.844 2.844 0 0 1 0-4Z" data-name="Path 1541" transform="translate(-21967.676 1280.476)"/><path id="Path_1542" fill="#6b6b6b" d="M416.658 128.13a2.828 2.828 0 0 1 4 4 2.828 2.828 0 0 1-4-4" data-name="Path 1542" transform="translate(-21924.783 1285.382)"/><path id="Path_1543" fill="none" stroke="#6b6b6b" stroke-miterlimit="10" stroke-width=".75" d="M416.656 72.6a2.828 2.828 0 1 1 0 4 2.844 2.844 0 0 1 0-4Z" data-name="Path 1543" transform="translate(-21924.781 1252.068)"/><path id="Path_1544" fill="none" stroke="#6b6b6b" stroke-miterlimit="10" stroke-width=".75" d="M416.652 80.778a2.828 2.828 0 1 1 0 4 2.844 2.844 0 0 1 0-4Z" data-name="Path 1544" transform="translate(-21924.777 1256.976)"/><path id="Path_1545" fill="#6b6b6b" d="M416.658 88.958a2.828 2.828 0 1 1 0 4 2.844 2.844 0 0 1 0-4" data-name="Path 1545" transform="translate(-21924.783 1261.884)"/><path id="Path_1546" fill="none" stroke="#6b6b6b" stroke-miterlimit="10" stroke-width=".75" d="M449 136.3a2.828 2.828 0 1 1 0 4 2.844 2.844 0 0 1 0-4Z" data-name="Path 1546" transform="translate(-22008.865 1290.285)"/><path id="Path_1547" fill="#6b6b6b" d="M348.488 162.478a2.828 2.828 0 1 1 0 4 2.844 2.844 0 0 1 0-4" data-name="Path 1547" transform="translate(-21747.543 1305.992)"/><path id="Path_1548" fill="#6b6b6b" d="M348.488 154.308a2.828 2.828 0 1 1 0 4 2.844 2.844 0 0 1 0-4" data-name="Path 1548" transform="translate(-21747.543 1301.091)"/><path id="Path_1549" fill="none" stroke="#6b6b6b" stroke-miterlimit="10" stroke-width=".75" d="M358.228 144.478a2.828 2.828 0 1 1 0 4 2.844 2.844 0 0 1 0-4Z" data-name="Path 1549" transform="translate(-21772.867 1295.193)"/><path id="Path_1550" fill="#6b6b6b" d="M367.966 144.478a2.828 2.828 0 1 1 0 4 2.844 2.844 0 0 1 0-4" data-name="Path 1550" transform="translate(-21798.189 1295.193)"/><path id="Path_1551" fill="#6b6b6b" d="M367.968 136.3a2.828 2.828 0 1 1 0 4 2.844 2.844 0 0 1 0-4" data-name="Path 1551" transform="translate(-21798.191 1290.285)"/><path id="Path_1552" fill="none" stroke="#6b6b6b" stroke-miterlimit="10" stroke-width=".75" d="M377.712 144.478a2.828 2.828 0 1 1 0 4 2.844 2.844 0 0 1 0-4Z" data-name="Path 1552" transform="translate(-21823.518 1295.193)"/><path id="Path_1553" fill="#878787" d="M387.444 144.478a2.828 2.828 0 1 1 0 4 2.844 2.844 0 0 1 0-4" data-name="Path 1553" transform="translate(-21848.818 1295.193)"/><path id="Path_1554" fill="none" stroke="#6b6b6b" stroke-miterlimit="10" stroke-width=".75" d="M416.656 144.478a2.828 2.828 0 1 1 0 4 2.844 2.844 0 0 1 0-4Z" data-name="Path 1554" transform="translate(-21924.781 1295.193)"/><path id="Path_1555" fill="none" stroke="#6b6b6b" stroke-miterlimit="10" stroke-width=".75" d="M416.658 168.338a2.828 2.828 0 1 1 0 4 2.844 2.844 0 0 1 0-4Z" data-name="Path 1555" transform="translate(-21924.783 1309.508)"/><path id="Path_1556" fill="#6b6b6b" d="M416.658 176.52a2.828 2.828 0 0 1 4 4 2.828 2.828 0 0 1-4-4" data-name="Path 1556" transform="translate(-21924.783 1314.413)"/><path id="Path_1557" fill="#6b6b6b" d="M416.658 227.078a2.828 2.828 0 1 1 0 4 2.844 2.844 0 0 1 0-4" data-name="Path 1557" transform="translate(-21924.783 1344.749)"/><path id="Path_1558" fill="#6b6b6b" d="M416.658 263.378a2.828 2.828 0 1 1 0 4 2.844 2.844 0 0 1 0-4" data-name="Path 1558" transform="translate(-21924.783 1366.527)"/><path id="Path_1559" fill="#6b6b6b" d="M399.315 192.878a2.828 2.828 0 1 1 0 4 2.844 2.844 0 0 1 0-4" data-name="Path 1559" transform="translate(-21879.695 1324.231)"/><path id="Path_1560" fill="none" stroke="#6b6b6b" stroke-miterlimit="10" stroke-width="1" d="M416.652 251.468a2.828 2.828 0 1 1 0 4 2.844 2.844 0 0 1 0-4Z" data-name="Path 1560" transform="translate(-21924.777 1359.382)"/><path id="Path_1561" fill="#6b6b6b" d="M416.658 201.048a2.828 2.828 0 1 1 0 4 2.844 2.844 0 0 1 0-4" data-name="Path 1561" transform="translate(-21924.783 1329.132)"/><path id="Path_1562" fill="none" stroke="#6b6b6b" stroke-miterlimit="10" stroke-width="1" d="M348.486 137.95a2.83 2.83 0 0 1 4 0 2.828 2.828 0 1 1-4 0Z" data-name="Path 1562" transform="translate(-21747.541 1291.273)"/><path id="Path_1563" fill="#6b6b6b" d="M377.708 121.588a2.828 2.828 0 1 1 0 4 2.844 2.844 0 0 1 0-4" data-name="Path 1563" transform="translate(-21823.514 1281.46)"/><path id="Path_1564" fill="#6b6b6b" d="M367.966 111.768a2.828 2.828 0 1 1 0 4 2.844 2.844 0 0 1 0-4" data-name="Path 1564" transform="translate(-21798.189 1275.569)"/><path id="Path_1565" fill="none" stroke="#6b6b6b" stroke-miterlimit="10" stroke-width=".75" d="M377.712 111.768a2.828 2.828 0 1 1 0 4 2.844 2.844 0 0 1 0-4Z" data-name="Path 1565" transform="translate(-21823.518 1275.569)"/><path id="Path_1566" fill="#6b6b6b" d="M251.024 84.868a2.828 2.828 0 1 1 0 4 2.844 2.844 0 0 1 0-4" data-name="Path 1566" transform="translate(-21494.148 1259.43)"/><path id="Path_1567" fill="#6b6b6b" d="M234.016 111.768a2.828 2.828 0 1 1 0 4 2.844 2.844 0 0 1 0-4" data-name="Path 1567" transform="translate(-21449.926 1275.569)"/><path id="Path_1568" fill="none" stroke="#6b6b6b" stroke-miterlimit="10" stroke-width="1" d="M242.442 111.768a2.828 2.828 0 1 1 0 4 2.844 2.844 0 0 1 0-4Z" data-name="Path 1568" transform="translate(-21471.822 1275.569)"/><path id="Path_1569" fill="none" stroke="#6b6b6b" stroke-miterlimit="10" stroke-width=".75" d="M260.766 111.768a2.828 2.828 0 1 1 0 4 2.844 2.844 0 0 1 0-4Z" data-name="Path 1569" transform="translate(-21519.475 1275.569)"/><path id="Path_1570" fill="none" stroke="#6b6b6b" stroke-miterlimit="10" stroke-width="1" d="M270.5 135.778a2.828 2.828 0 1 1 0 4 2.844 2.844 0 0 1 0-4Z" data-name="Path 1570" transform="translate(-21544.793 1289.973)"/><path id="Path_1571" fill="none" stroke="#adadad" stroke-miterlimit="10" stroke-width=".75" d="M280.246 111.768a2.828 2.828 0 1 1 0 4 2.844 2.844 0 0 1 0-4Z" data-name="Path 1571" transform="translate(-21570.121 1275.569)"/><path id="Path_1572" fill="#6b6b6b" d="M289.988 93.05a2.828 2.828 0 1 1 0 4 2.83 2.83 0 0 1 0-4" data-name="Path 1572" transform="translate(-21595.447 1264.335)"/><path id="Path_1573" fill="none" stroke="#6b6b6b" stroke-miterlimit="10" stroke-width="1" d="M299.726 111.768a2.828 2.828 0 1 1 0 4 2.844 2.844 0 0 1 0-4Z" data-name="Path 1573" transform="translate(-21620.768 1275.569)"/><path id="Path_1574" fill="none" stroke="#c4c4c4" stroke-miterlimit="10" stroke-width=".75" d="M309.468 97.138a2.828 2.828 0 1 1 0 4 2.844 2.844 0 0 1 0-4Z" data-name="Path 1574" transform="translate(-21646.094 1266.791)"/><path id="Path_1575" fill="none" stroke="#6b6b6b" stroke-miterlimit="10" stroke-width=".75" d="M319.2 111.768a2.828 2.828 0 1 1 0 4 2.844 2.844 0 0 1 0-4Z" data-name="Path 1575" transform="translate(-21671.389 1275.569)"/><path id="Path_1576" fill="#6b6b6b" d="M328.942 86.638a2.828 2.828 0 1 1 0 4 2.844 2.844 0 0 1 0-4" data-name="Path 1576" transform="translate(-21696.719 1260.492)"/><path id="Path_1577" fill="#6b6b6b" d="M338.672 97.188a2.828 2.828 0 1 1 0 4 2.844 2.844 0 0 1 0-4" data-name="Path 1577" transform="translate(-21722.033 1266.821)"/><path id="Path_1578" fill="#6b6b6b" d="M338.672 80.778a2.828 2.828 0 1 1 0 4 2.844 2.844 0 0 1 0-4" data-name="Path 1578" transform="translate(-21722.033 1256.976)"/><path id="Path_1579" fill="#6b6b6b" d="M251.024 93.05a2.828 2.828 0 1 1 0 4 2.83 2.83 0 0 1 0-4" data-name="Path 1579" transform="translate(-21494.148 1264.335)"/><path id="Path_1580" fill="#6b6b6b" d="M260.762 119.948a2.828 2.828 0 1 1 0 4 2.844 2.844 0 0 1 0-4" data-name="Path 1580" transform="translate(-21519.471 1280.476)"/><path id="Path_1581" fill="#6b6b6b" d="M270.508 143.958a2.828 2.828 0 1 1 0 4 2.844 2.844 0 0 1 0-4" data-name="Path 1581" transform="translate(-21544.799 1294.881)"/><path id="Path_1582" fill="none" stroke="#6b6b6b" stroke-miterlimit="10" stroke-width=".75" d="M280.242 119.948a2.828 2.828 0 1 1 0 4 2.844 2.844 0 0 1 0-4Z" data-name="Path 1582" transform="translate(-21570.117 1280.476)"/><path id="Path_1583" fill="#6b6b6b" d="M299.722 119.948a2.828 2.828 0 1 1 0 4 2.844 2.844 0 0 1 0-4" data-name="Path 1583" transform="translate(-21620.764 1280.476)"/><path id="Path_1584" fill="none" stroke="#c4c4c4" stroke-miterlimit="10" stroke-width=".75" d="M309.468 66.2a2.828 2.828 0 1 1 0 4 2.844 2.844 0 0 1 0-4Z" data-name="Path 1584" transform="translate(-21646.094 1248.229)"/><path id="Path_1585" fill="none" stroke="#6b6b6b" stroke-miterlimit="10" stroke-width=".75" d="M319.192 119.948a2.828 2.828 0 1 1 0 4 2.844 2.844 0 0 1 0-4Z" data-name="Path 1585" transform="translate(-21671.385 1280.476)"/><path id="Path_1586" fill="#6b6b6b" d="M328.938 119.948a2.828 2.828 0 1 1 0 4 2.844 2.844 0 0 1 0-4" data-name="Path 1586" transform="translate(-21696.715 1280.476)"/><path id="Path_1587" fill="#6b6b6b" d="M251.028 101.228a2.828 2.828 0 1 1 0 4 2.844 2.844 0 0 1 0-4" data-name="Path 1587" transform="translate(-21494.152 1269.245)"/><path id="Path_1588" fill="none" stroke="#6b6b6b" stroke-miterlimit="10" stroke-width=".75" d="M260.768 128.13a2.828 2.828 0 1 1 0 4 2.83 2.83 0 0 1 0-4Z" data-name="Path 1588" transform="translate(-21519.477 1285.382)"/><path id="Path_1589" fill="#bababa" d="M270.508 181.158a2.828 2.828 0 1 1 0 4 2.844 2.844 0 0 1 0-4" data-name="Path 1589" transform="translate(-21544.799 1317.199)"/><path id="Path_1590" fill="none" stroke="#6b6b6b" stroke-miterlimit="10" stroke-width=".75" d="M280.248 128.13a2.828 2.828 0 1 1 0 4 2.83 2.83 0 0 1 0-4Z" data-name="Path 1590" transform="translate(-21570.123 1285.382)"/><path id="Path_1591" fill="#6b6b6b" d="M299.726 202.82a2.83 2.83 0 0 1 4 0 2.828 2.828 0 1 1-4 0" data-name="Path 1591" transform="translate(-21620.768 1330.192)"/><path id="Path_1592" fill="none" stroke="#6b6b6b" stroke-miterlimit="10" stroke-width=".75" d="M309.468 111.168a2.828 2.828 0 1 1 0 4 2.844 2.844 0 0 1 0-4Z" data-name="Path 1592" transform="translate(-21646.094 1275.209)"/><path id="Path_1593" fill="#6b6b6b" d="M319.2 220.158a2.828 2.828 0 1 1 0 4 2.844 2.844 0 0 1 0-4" data-name="Path 1593" transform="translate(-21671.391 1340.598)"/><path id="Path_1594" fill="#6b6b6b" d="M251.028 109.4a2.828 2.828 0 1 1 0 4 2.83 2.83 0 0 1 0-4" data-name="Path 1594" transform="translate(-21494.152 1274.144)"/><path id="Path_1595" fill="#6b6b6b" d="M260.768 136.3a2.828 2.828 0 1 1 0 4 2.844 2.844 0 0 1 0-4" data-name="Path 1595" transform="translate(-21519.477 1290.285)"/><path id="Path_1596" fill="#6b6b6b" d="M270.506 160.308a2.828 2.828 0 1 1 0 4 2.844 2.844 0 0 1 0-4" data-name="Path 1596" transform="translate(-21544.797 1304.69)"/><path id="Path_1597" fill="#6b6b6b" d="M299.728 136.3a2.828 2.828 0 1 1 0 4 2.844 2.844 0 0 1 0-4" data-name="Path 1597" transform="translate(-21620.77 1290.285)"/><path id="Path_1598" fill="none" stroke="#6b6b6b" stroke-miterlimit="10" stroke-width=".75" d="M309.472 166.168a2.828 2.828 0 1 1 0 4 2.844 2.844 0 0 1 0-4Z" data-name="Path 1598" transform="translate(-21646.098 1308.206)"/><path id="Path_1599" fill="none" stroke="#6b6b6b" stroke-miterlimit="10" stroke-width=".75" d="M319.2 136.3a2.828 2.828 0 1 1 0 4 2.844 2.844 0 0 1 0-4Z" data-name="Path 1599" transform="translate(-21671.391 1290.285)"/><path id="Path_1600" fill="#6b6b6b" d="M328.944 136.3a2.828 2.828 0 1 1 0 4 2.844 2.844 0 0 1 0-4" data-name="Path 1600" transform="translate(-21696.721 1290.285)"/><path id="Path_1601" fill="#6b6b6b" d="M338.676 170.658a2.828 2.828 0 1 1 0 4 2.844 2.844 0 0 1 0-4" data-name="Path 1601" transform="translate(-21722.037 1310.9)"/><path id="Path_1602" fill="#6b6b6b" d="M242.442 144.478a2.828 2.828 0 1 1 0 4 2.844 2.844 0 0 1 0-4" data-name="Path 1602" transform="translate(-21471.822 1295.193)"/><path id="Path_1603" fill="none" stroke="#6b6b6b" stroke-miterlimit="10" stroke-width="1" d="M299.726 144.478a2.828 2.828 0 1 1 0 4 2.844 2.844 0 0 1 0-4Z" data-name="Path 1603" transform="translate(-21620.768 1295.193)"/><path id="Path_1604" fill="none" stroke="#6b6b6b" stroke-miterlimit="10" stroke-width=".75" d="M309.466 174.348a2.828 2.828 0 1 1 0 4 2.844 2.844 0 0 1 0-4Z" data-name="Path 1604" transform="translate(-21646.092 1313.114)"/><path id="Path_1605" fill="none" stroke="#6b6b6b" stroke-miterlimit="10" stroke-width=".75" d="M319.2 144.478a2.828 2.828 0 1 1 0 4 2.844 2.844 0 0 1 0-4Z" data-name="Path 1605" transform="translate(-21671.389 1295.193)"/><path id="Path_1606" fill="#bfbfbf" d="M328.942 144.478a2.828 2.828 0 1 1 0 4 2.844 2.844 0 0 1 0-4" data-name="Path 1606" transform="translate(-21696.719 1295.193)"/><path id="Path_1607" fill="#bfbfbf" d="M338.678 121.588a2.828 2.828 0 1 1 0 4 2.844 2.844 0 0 1 0-4" data-name="Path 1607" transform="translate(-21722.039 1281.46)"/></g><defs><style>@keyframes opacity-animation{0%{opacity:1}to{opacity:.3}}#Group_3485 path{animation-name:opacity-animation;animation-duration:2s;animation-direction:alternate;animation-iteration-count:infinite;animation-fill-mode:both;animation-play-state:running;animation-timing-function:ease}#Group_3485 path[id^=Path_146]{animation-delay:6.25s}#Group_3485 path[id^=Path_147]{animation-delay:5.75s}#Group_3485 path[id^=Path_148]{animation-delay:5.25s}#Group_3485 path[id^=Path_149]{animation-delay:5s}#Group_3485 path[id^=Path_150]{animation-delay:4.75s}#Group_3485 path[id^=Path_151]{animation-delay:4.25s}#Group_3485 path[id^=Path_152]{animation-delay:4s}#Group_3485 path[id^=Path_153]{animation-delay:3.75s}#Group_3485 path[id^=Path_154]{animation-delay:3.25s}#Group_3485 path[id^=Path_155]{animation-delay:3s}#Group_3485 path[id^=Path_156]{animation-delay:2.75s}#Group_3485 path[id^=Path_157]{animation-delay:2.25s}#Group_3485 path[id^=Path_158]{animation-delay:2s}#Group_3485 path[id^=Path_159]{animation-delay:1.75s}#Group_3485 path[id^=Path_160]{animation-delay:1.25s}</style></defs></svg>