<svg xmlns="http://www.w3.org/2000/svg" width="723.266" height="321.692" viewBox="0 0 723.266 321.692"><g id="Group_3485" transform="translate(21561.266 -1313.029)"><path id="Path_1462" fill="#6b6b6b" d="M193.2 95.418a2.828 2.828 0 1 1 0 4 2.844 2.844 0 0 1 0-4" data-name="Path 1462" transform="translate(-21343.797 1265.759)"/><path id="Path_1463" fill="#6b6b6b" d="M202.942 111.768a2.828 2.828 0 1 1 0 4 2.844 2.844 0 0 1 0-4" data-name="Path 1463" transform="translate(-21369.125 1275.569)"/><path id="Path_1465" fill="#6b6b6b" d="M193.2 103.588a2.828 2.828 0 1 1 0 4 2.844 2.844 0 0 1 0-4" data-name="Path 1465" transform="translate(-21343.797 1270.661)"/><path id="Path_1466" fill="none" stroke="#6b6b6b" stroke-miterlimit="10" stroke-width="1" d="M202.938 119.948a2.828 2.828 0 1 1 0 4 2.844 2.844 0 0 1 0-4Z" data-name="Path 1466" transform="translate(-21369.121 1280.476)"/><path id="Path_1467" fill="#6b6b6b" d="M183.468 128.13a2.828 2.828 0 1 1 0 4 2.83 2.83 0 0 1 0-4" data-name="Path 1467" transform="translate(-21318.5 1285.382)"/><path id="Path_1469" fill="none" stroke="#6b6b6b" stroke-miterlimit="10" stroke-width=".75" d="M183.468 136.3a2.828 2.828 0 1 1 0 4 2.844 2.844 0 0 1 0-4Z" data-name="Path 1469" transform="translate(-21318.5 1290.285)"/><path id="Path_1471" fill="#6b6b6b" d="M115.288 168.338a2.828 2.828 0 1 1 0 4 2.844 2.844 0 0 1 0-4" data-name="Path 1471" transform="translate(-21141.234 1309.508)"/><path id="Path_1474" fill="#6b6b6b" d="M115.288 208.058a2.828 2.828 0 1 1 0 4 2.844 2.844 0 0 1 0-4" data-name="Path 1474" transform="translate(-21141.234 1333.338)"/><path id="Path_1475" fill="none" stroke="#6b6b6b" stroke-miterlimit="10" stroke-width="1" d="M107.256 199.878a2.828 2.828 0 1 1 0 4 2.844 2.844 0 0 1 0-4Z" data-name="Path 1475" transform="translate(-21120.355 1328.43)"/><path id="Path_1476" fill="none" stroke="#6b6b6b" stroke-miterlimit="10" stroke-width="1" d="M115.288 231.718a2.828 2.828 0 1 1 0 4 2.844 2.844 0 0 1 0-4Z" data-name="Path 1476" transform="translate(-21141.234 1347.533)"/><path id="Path_1478" fill="#6b6b6b" d="M134.762 144.478a2.828 2.828 0 1 1 0 4 2.844 2.844 0 0 1 0-4" data-name="Path 1478" transform="translate(-21191.875 1295.193)"/><path id="Path_1479" fill="#6b6b6b" d="M134.768 126.358a2.828 2.828 0 1 1 0 4 2.844 2.844 0 0 1 0-4" data-name="Path 1479" transform="translate(-21191.883 1284.322)"/><path id="Path_1483" fill="#bfbfbf" d="M193.2 128.13a2.828 2.828 0 1 1 0 4 2.83 2.83 0 0 1 0-4" data-name="Path 1483" transform="translate(-21343.797 1285.382)"/><path id="Path_1484" fill="#bfbfbf" d="M202.942 144.478a2.828 2.828 0 1 1 0 4 2.844 2.844 0 0 1 0-4" data-name="Path 1484" transform="translate(-21369.125 1295.193)"/><path id="Path_1485" fill="none" stroke="#6b6b6b" stroke-miterlimit="10" stroke-width="1" d="M115.288 143.808a2.828 2.828 0 1 1 0 4 2.844 2.844 0 0 1 0-4Z" data-name="Path 1485" transform="translate(-21141.234 1294.791)"/><path id="Path_1487" fill="#6b6b6b" d="M134.762 111.768a2.828 2.828 0 1 1 0 4 2.844 2.844 0 0 1 0-4" data-name="Path 1487" transform="translate(-21191.875 1275.569)"/><path id="Path_1491" fill="none" stroke="#6b6b6b" stroke-miterlimit="10" stroke-width="1" d="M9.232 111.768a2.828 2.828 0 1 1 0 4 2.844 2.844 0 0 1 0-4Z" data-name="Path 1491" transform="translate(-20865.504 1275.569)"/><path id="Path_1492" fill="none" stroke="#6b6b6b" stroke-miterlimit="10" stroke-width=".75" d="M27.576 111.768a2.828 2.828 0 1 1 0 4 2.844 2.844 0 0 1 0-4Z" data-name="Path 1492" transform="translate(-20913.191 1275.569)"/><path id="Path_1493" fill="none" stroke="#6b6b6b" stroke-miterlimit="10" stroke-width="1" d="M37.306 95.368a2.828 2.828 0 1 1 0 4 2.844 2.844 0 0 1 0-4Z" data-name="Path 1493" transform="translate(-20938.488 1265.729)"/><path id="Path_1495" fill="#6b6b6b" d="M56.786 111.768a2.828 2.828 0 1 1 0 4 2.844 2.844 0 0 1 0-4" data-name="Path 1495" transform="translate(-20989.135 1275.569)"/><path id="Path_1496" fill="none" stroke="#6b6b6b" stroke-miterlimit="10" stroke-width="1" d="M66.532 82.548a2.828 2.828 0 1 1 0 4 2.844 2.844 0 0 1 0-4Z" data-name="Path 1496" transform="translate(-21014.465 1258.038)"/><path id="Path_1498" fill="none" stroke="#6b6b6b" stroke-miterlimit="10" stroke-width=".75" d="M86.006 111.768a2.828 2.828 0 1 1 0 4 2.844 2.844 0 0 1 0-4Z" data-name="Path 1498" transform="translate(-21065.105 1275.569)"/><path id="Path_1501" fill="#6b6b6b" d="M17.832 146.128a2.828 2.828 0 1 1 0 4 2.844 2.844 0 0 1 0-4" data-name="Path 1501" transform="translate(-20887.863 1296.183)"/><path id="Path_1502" fill="#6b6b6b" d="M27.572 119.948a2.828 2.828 0 1 1 0 4 2.844 2.844 0 0 1 0-4" data-name="Path 1502" transform="translate(-20913.188 1280.476)"/><path id="Path_1503" fill="#6b6b6b" d="M37.308 103.538a2.828 2.828 0 1 1 0 4 2.844 2.844 0 0 1 0-4" data-name="Path 1503" transform="translate(-20938.49 1270.631)"/><path id="Path_1505" fill="#6b6b6b" d="M66.526 90.73a2.83 2.83 0 0 1 4 0 2.86 2.86 0 0 1 0 4 2.83 2.83 0 0 1-4 0 2.86 2.86 0 0 1 0-4" data-name="Path 1505" transform="translate(-21014.459 1262.943)"/><path id="Path_1507" fill="none" stroke="#6b6b6b" stroke-miterlimit="10" stroke-width=".75" d="M86 119.948a2.828 2.828 0 1 1 0 4 2.844 2.844 0 0 1 0-4Z" data-name="Path 1507" transform="translate(-21065.102 1280.476)"/><path id="Path_1509" fill="#6b6b6b" d="M17.838 154.308a2.828 2.828 0 1 1 0 4 2.844 2.844 0 0 1 0-4" data-name="Path 1509" transform="translate(-20887.869 1301.091)"/><path id="Path_1512" fill="none" stroke="#6b6b6b" stroke-miterlimit="10" stroke-width=".75" d="M47.05 128.13a2.828 2.828 0 1 1 0 4 2.83 2.83 0 0 1 0-4Z" data-name="Path 1512" transform="translate(-20963.816 1285.382)"/><path id="Path_1514" fill="none" stroke="#6b6b6b" stroke-miterlimit="10" stroke-width=".75" d="M76.264 128.13a2.828 2.828 0 0 1 4 4 2.828 2.828 0 0 1-4-4Z" data-name="Path 1514" transform="translate(-21039.781 1285.382)"/><path id="Path_1520" fill="none" stroke="#6b6b6b" stroke-miterlimit="10" stroke-width=".75" d="M76.264 136.3a2.828 2.828 0 1 1 0 4 2.844 2.844 0 0 1 0-4Z" data-name="Path 1520" transform="translate(-21039.781 1290.285)"/><path id="Path_1522" fill="#6b6b6b" d="M95.738 119.948a2.828 2.828 0 1 1 0 4 2.844 2.844 0 0 1 0-4" data-name="Path 1522" transform="translate(-21090.422 1280.476)"/><path id="Path_1523" fill="#6b6b6b" d="M105.488 136.3a2.828 2.828 0 1 1 0 4 2.844 2.844 0 0 1 0-4" data-name="Path 1523" transform="translate(-21115.756 1290.285)"/><path id="Path_1526" fill="#6b6b6b" d="M9.232 144.478a2.828 2.828 0 1 1 0 4 2.844 2.844 0 0 1 0-4" data-name="Path 1526" transform="translate(-20865.504 1295.193)"/><path id="Path_1527" fill="none" stroke="#6b6b6b" stroke-miterlimit="10" stroke-width="1" d="M66.532 115.258a2.828 2.828 0 1 1 0 4 2.844 2.844 0 0 1 0-4Z" data-name="Path 1527" transform="translate(-21014.465 1277.662)"/><path id="Path_1529" fill="none" stroke="#6b6b6b" stroke-miterlimit="10" stroke-width=".75" d="M86.006 144.478a2.828 2.828 0 1 1 0 4 2.844 2.844 0 0 1 0-4Z" data-name="Path 1529" transform="translate(-21065.105 1295.193)"/><path id="Path_1532" fill="#6b6b6b" d="M222.51 128.13a2.828 2.828 0 0 1 4 4 2.86 2.86 0 0 1-4 0 2.83 2.83 0 0 1 0-4" data-name="Path 1532" transform="translate(-21420.004 1285.382)"/><path id="Path_1533" fill="none" stroke="#6b6b6b" stroke-miterlimit="10" stroke-width="1" d="M222.51 136.3a2.828 2.828 0 1 1 0 4 2.844 2.844 0 0 1 0-4Z" data-name="Path 1533" transform="translate(-21420.004 1290.285)"/><path id="Path_1537" fill="none" stroke="#6b6b6b" stroke-miterlimit="10" stroke-width="1" d="M212.7 119.948a2.828 2.828 0 1 1 0 4 2.844 2.844 0 0 1 0-4Z" data-name="Path 1537" transform="translate(-21394.516 1280.476)"/><path id="Path_1539" fill="#ababab" d="M348.482 146.128a2.828 2.828 0 1 1 0 4 2.844 2.844 0 0 1 0-4" data-name="Path 1539" transform="translate(-21747.537 1296.183)"/><path id="Path_1541" fill="none" stroke="#6b6b6b" stroke-miterlimit="10" stroke-width=".75" d="M433.152 119.948a2.828 2.828 0 1 1 0 4 2.844 2.844 0 0 1 0-4Z" data-name="Path 1541" transform="translate(-21967.676 1280.476)"/><path id="Path_1542" fill="#6b6b6b" d="M416.658 128.13a2.828 2.828 0 0 1 4 4 2.828 2.828 0 0 1-4-4" data-name="Path 1542" transform="translate(-21924.783 1285.382)"/><path id="Path_1543" fill="none" stroke="#6b6b6b" stroke-miterlimit="10" stroke-width=".75" d="M416.656 72.6a2.828 2.828 0 1 1 0 4 2.844 2.844 0 0 1 0-4Z" data-name="Path 1543" transform="translate(-21924.781 1252.068)"/><path id="Path_1548" fill="#6b6b6b" d="M348.488 154.308a2.828 2.828 0 1 1 0 4 2.844 2.844 0 0 1 0-4" data-name="Path 1548" transform="translate(-21747.543 1301.091)"/><path id="Path_1549" fill="none" stroke="#6b6b6b" stroke-miterlimit="10" stroke-width=".75" d="M358.228 144.478a2.828 2.828 0 1 1 0 4 2.844 2.844 0 0 1 0-4Z" data-name="Path 1549" transform="translate(-21772.867 1295.193)"/><path id="Path_1551" fill="#6b6b6b" d="M367.968 136.3a2.828 2.828 0 1 1 0 4 2.844 2.844 0 0 1 0-4" data-name="Path 1551" transform="translate(-21798.191 1290.285)"/><path id="Path_1553" fill="#878787" d="M387.444 144.478a2.828 2.828 0 1 1 0 4 2.844 2.844 0 0 1 0-4" data-name="Path 1553" transform="translate(-21848.818 1295.193)"/><path id="Path_1555" fill="none" stroke="#6b6b6b" stroke-miterlimit="10" stroke-width=".75" d="M416.658 168.338a2.828 2.828 0 1 1 0 4 2.844 2.844 0 0 1 0-4Z" data-name="Path 1555" transform="translate(-21924.783 1309.508)"/><path id="Path_1556" fill="#6b6b6b" d="M416.658 176.52a2.828 2.828 0 0 1 4 4 2.828 2.828 0 0 1-4-4" data-name="Path 1556" transform="translate(-21924.783 1314.413)"/><path id="Path_1558" fill="#6b6b6b" d="M416.658 263.378a2.828 2.828 0 1 1 0 4 2.844 2.844 0 0 1 0-4" data-name="Path 1558" transform="translate(-21924.783 1366.527)"/><path id="Path_1561" fill="#6b6b6b" d="M416.658 201.048a2.828 2.828 0 1 1 0 4 2.844 2.844 0 0 1 0-4" data-name="Path 1561" transform="translate(-21924.783 1329.132)"/><path id="Path_1566" fill="#6b6b6b" d="M251.024 84.868a2.828 2.828 0 1 1 0 4 2.844 2.844 0 0 1 0-4" data-name="Path 1566" transform="translate(-21494.148 1259.43)"/><path id="Path_1567" fill="#6b6b6b" d="M234.016 111.768a2.828 2.828 0 1 1 0 4 2.844 2.844 0 0 1 0-4" data-name="Path 1567" transform="translate(-21449.926 1275.569)"/><path id="Path_1568" fill="none" stroke="#6b6b6b" stroke-miterlimit="10" stroke-width="1" d="M242.442 111.768a2.828 2.828 0 1 1 0 4 2.844 2.844 0 0 1 0-4Z" data-name="Path 1568" transform="translate(-21471.822 1275.569)"/><path id="Path_1570" fill="none" stroke="#6b6b6b" stroke-miterlimit="10" stroke-width="1" d="M270.5 135.778a2.828 2.828 0 1 1 0 4 2.844 2.844 0 0 1 0-4Z" data-name="Path 1570" transform="translate(-21544.793 1289.973)"/><path id="Path_1571" fill="none" stroke="#adadad" stroke-miterlimit="10" stroke-width=".75" d="M280.246 111.768a2.828 2.828 0 1 1 0 4 2.844 2.844 0 0 1 0-4Z" data-name="Path 1571" transform="translate(-21570.121 1275.569)"/><path id="Path_1575" fill="none" stroke="#6b6b6b" stroke-miterlimit="10" stroke-width=".75" d="M319.2 111.768a2.828 2.828 0 1 1 0 4 2.844 2.844 0 0 1 0-4Z" data-name="Path 1575" transform="translate(-21671.389 1275.569)"/><path id="Path_1577" fill="#6b6b6b" d="M338.672 97.188a2.828 2.828 0 1 1 0 4 2.844 2.844 0 0 1 0-4" data-name="Path 1577" transform="translate(-21722.033 1266.821)"/><path id="Path_1579" fill="#6b6b6b" d="M251.024 93.05a2.828 2.828 0 1 1 0 4 2.83 2.83 0 0 1 0-4" data-name="Path 1579" transform="translate(-21494.148 1264.335)"/><path id="Path_1581" fill="#6b6b6b" d="M270.508 143.958a2.828 2.828 0 1 1 0 4 2.844 2.844 0 0 1 0-4" data-name="Path 1581" transform="translate(-21544.799 1294.881)"/><path id="Path_1582" fill="none" stroke="#6b6b6b" stroke-miterlimit="10" stroke-width=".75" d="M280.242 119.948a2.828 2.828 0 1 1 0 4 2.844 2.844 0 0 1 0-4Z" data-name="Path 1582" transform="translate(-21570.117 1280.476)"/><path id="Path_1585" fill="none" stroke="#6b6b6b" stroke-miterlimit="10" stroke-width=".75" d="M319.192 119.948a2.828 2.828 0 1 1 0 4 2.844 2.844 0 0 1 0-4Z" data-name="Path 1585" transform="translate(-21671.385 1280.476)"/><path id="Path_1588" fill="none" stroke="#6b6b6b" stroke-miterlimit="10" stroke-width=".75" d="M260.768 128.13a2.828 2.828 0 1 1 0 4 2.83 2.83 0 0 1 0-4Z" data-name="Path 1588" transform="translate(-21519.477 1285.382)"/><path id="Path_1591" fill="#6b6b6b" d="M299.726 202.82a2.83 2.83 0 0 1 4 0 2.828 2.828 0 1 1-4 0" data-name="Path 1591" transform="translate(-21620.768 1330.192)"/><path id="Path_1592" fill="none" stroke="#6b6b6b" stroke-miterlimit="10" stroke-width=".75" d="M309.468 111.168a2.828 2.828 0 1 1 0 4 2.844 2.844 0 0 1 0-4Z" data-name="Path 1592" transform="translate(-21646.094 1275.209)"/><path id="Path_1593" fill="#6b6b6b" d="M319.2 220.158a2.828 2.828 0 1 1 0 4 2.844 2.844 0 0 1 0-4" data-name="Path 1593" transform="translate(-21671.391 1340.598)"/><path id="Path_1595" fill="#6b6b6b" d="M260.768 136.3a2.828 2.828 0 1 1 0 4 2.844 2.844 0 0 1 0-4" data-name="Path 1595" transform="translate(-21519.477 1290.285)"/><path id="Path_1597" fill="#6b6b6b" d="M299.728 136.3a2.828 2.828 0 1 1 0 4 2.844 2.844 0 0 1 0-4" data-name="Path 1597" transform="translate(-21620.77 1290.285)"/><path id="Path_1600" fill="#6b6b6b" d="M328.944 136.3a2.828 2.828 0 1 1 0 4 2.844 2.844 0 0 1 0-4" data-name="Path 1600" transform="translate(-21696.721 1290.285)"/><path id="Path_1601" fill="#6b6b6b" d="M338.676 170.658a2.828 2.828 0 1 1 0 4 2.844 2.844 0 0 1 0-4" data-name="Path 1601" transform="translate(-21722.037 1310.9)"/><path id="Path_1602" fill="#6b6b6b" d="M242.442 144.478a2.828 2.828 0 1 1 0 4 2.844 2.844 0 0 1 0-4" data-name="Path 1602" transform="translate(-21471.822 1295.193)"/><path id="Path_1605" fill="none" stroke="#6b6b6b" stroke-miterlimit="10" stroke-width=".75" d="M319.2 144.478a2.828 2.828 0 1 1 0 4 2.844 2.844 0 0 1 0-4Z" data-name="Path 1605" transform="translate(-21671.389 1295.193)"/></g><defs><style>@keyframes opacity-animation{0%{opacity:1}to{opacity:.3}}#Group_3485 path{animation-name:opacity-animation;animation-duration:2s;animation-direction:alternate;animation-iteration-count:infinite;animation-fill-mode:both;animation-play-state:running;animation-timing-function:ease}#Group_3485 path[id^=Path_146]{animation-delay:6.25s}#Group_3485 path[id^=Path_147]{animation-delay:5.75s}#Group_3485 path[id^=Path_148]{animation-delay:5.25s}#Group_3485 path[id^=Path_149]{animation-delay:5s}#Group_3485 path[id^=Path_150]{animation-delay:4.75s}#Group_3485 path[id^=Path_151]{animation-delay:4.25s}#Group_3485 path[id^=Path_152]{animation-delay:4s}#Group_3485 path[id^=Path_153]{animation-delay:3.75s}#Group_3485 path[id^=Path_154]{animation-delay:3.25s}#Group_3485 path[id^=Path_155]{animation-delay:3s}#Group_3485 path[id^=Path_156]{animation-delay:2.75s}#Group_3485 path[id^=Path_157]{animation-delay:2.25s}#Group_3485 path[id^=Path_158]{animation-delay:2s}#Group_3485 path[id^=Path_159]{animation-delay:1.75s}#Group_3485 path[id^=Path_160]{animation-delay:1.25s}</style></defs></svg>